<svg width="224" height="74" viewBox="0 0 224 74" fill="none" xmlns="http://www.w3.org/2000/svg">
<g clip-path="url(#clip0_29_28)">
<g filter="url(#filter0_d_29_28)">
<path d="M17.9162 32.0526C16.6281 32.0526 15.4987 31.8082 14.5281 31.3196C13.5574 30.8122 12.8014 30.0886 12.2601 29.149C11.7374 28.1905 11.4761 27.0253 11.4761 25.6533H15.3681C15.3681 26.2547 15.4614 26.7716 15.6481 27.2038C15.8347 27.636 16.1054 27.965 16.4601 28.1905C16.8147 28.416 17.2627 28.5288 17.8042 28.5288C18.3454 28.5288 18.7842 28.4253 19.1202 28.2187C19.4562 27.9931 19.6987 27.683 19.8482 27.2884C20.0162 26.8937 20.1002 26.4238 20.1002 25.8789V11.981H24.0202V25.8789C24.0202 27.871 23.4602 29.4027 22.3402 30.4739C21.2387 31.5263 19.7642 32.0526 17.9162 32.0526ZM25.6902 31.7143L32.8302 11.981H37.2822L44.4222 31.7143H40.2782L35.0422 16.4632L29.7782 31.7143H25.6902ZM28.8262 27.2884L29.8622 24.2156H39.9422L40.9502 27.2884H28.8262ZM46.9392 31.7143V11.981H50.8592V19.677L57.8592 11.981H62.6752L55.4792 19.7897L62.8992 31.7143H58.1112L52.6792 22.8343L50.8592 24.8076V31.7143H46.9392ZM73.0676 32.0526C71.6116 32.0526 70.2956 31.7613 69.1196 31.1787C67.9436 30.596 67.0009 29.7221 66.2916 28.557C65.6009 27.373 65.2556 25.8789 65.2556 24.0747V11.981H69.1756V24.1029C69.1756 25.0613 69.3341 25.86 69.6516 26.499C69.9689 27.1381 70.4169 27.6267 70.9956 27.965C71.5929 28.2844 72.3116 28.4442 73.1516 28.4442C73.9916 28.4442 74.7009 28.2844 75.2796 27.965C75.8769 27.6267 76.3341 27.1381 76.6516 26.499C76.9689 25.86 77.1276 25.0613 77.1276 24.1029V11.981H81.0476V24.0747C81.0476 25.8789 80.6836 27.373 79.9556 28.557C79.2461 29.7221 78.2849 30.596 77.0716 31.1787C75.8581 31.7613 74.5236 32.0526 73.0676 32.0526ZM84.6463 31.7143V11.981H92.7943C94.1568 11.981 95.3048 12.1971 96.2383 12.6293C97.1716 13.0616 97.8808 13.663 98.3663 14.4335C98.8516 15.1853 99.0943 16.0686 99.0943 17.0834C99.0943 18.0608 98.8796 18.8876 98.4503 19.5642C98.0208 20.2408 97.4516 20.767 96.7421 21.1429C96.0516 21.5 95.2863 21.7067 94.4463 21.763L94.8943 21.453C95.7903 21.4905 96.5836 21.7349 97.2743 22.1859C97.9836 22.637 98.5343 23.229 98.9263 23.9619C99.3368 24.676 99.5423 25.4653 99.5423 26.3299C99.5423 27.3823 99.2903 28.3221 98.7863 29.149C98.2823 29.9571 97.5448 30.5867 96.5743 31.0377C95.6223 31.4888 94.4556 31.7143 93.0743 31.7143H84.6463ZM88.5663 28.5006H92.4583C93.4476 28.5006 94.2128 28.275 94.7543 27.824C95.2956 27.3541 95.5663 26.6964 95.5663 25.8507C95.5663 25.005 95.2863 24.3377 94.7263 23.8491C94.1663 23.3606 93.3916 23.1162 92.4023 23.1162H88.5663V28.5006ZM88.5663 20.1844H92.1503C93.1023 20.1844 93.8303 19.9682 94.3343 19.536C94.8383 19.085 95.0903 18.4554 95.0903 17.6472C95.0903 16.8579 94.8383 16.2471 94.3343 15.8149C93.8303 15.3638 93.0928 15.1383 92.1223 15.1383H88.5663V20.1844ZM109.092 31.7143V11.981H116.512C118.098 11.981 119.405 12.2535 120.432 12.7985C121.477 13.3435 122.252 14.0764 122.756 14.9973C123.278 15.8994 123.54 16.9143 123.54 18.0419C123.54 19.0943 123.288 20.081 122.784 21.0019C122.298 21.9229 121.533 22.6651 120.488 23.229C119.442 23.7739 118.107 24.0465 116.483 24.0465H113.012V31.7143H109.092ZM119.227 31.7143L115.224 23.0598H119.48L123.708 31.7143H119.227ZM113.012 21.171H116.287C117.389 21.171 118.201 20.8985 118.724 20.3535C119.265 19.8086 119.536 19.085 119.536 18.1829C119.536 17.2996 119.274 16.5948 118.752 16.0686C118.229 15.5423 117.398 15.2792 116.26 15.2792H113.012V21.171ZM126.306 31.7143V28.6979L135.266 15.251H126.362V11.981H139.774V14.9973L130.786 28.4442H139.83V31.7143H126.306ZM143.107 31.7143V11.981H156.071V15.1665H147.027V20.1562H155.231V23.229H147.027V28.5288H156.071V31.7143H143.107ZM159.486 31.7143V11.981H166.934C168.521 11.981 169.837 12.2535 170.882 12.7985C171.927 13.3435 172.702 14.0858 173.206 15.0255C173.729 15.9464 173.99 16.9989 173.99 18.1829C173.99 19.2729 173.738 20.2878 173.234 21.2274C172.749 22.1484 171.983 22.9 170.938 23.4827C169.893 24.0653 168.558 24.3566 166.934 24.3566H163.406V31.7143H159.486ZM163.406 21.171H166.682C167.858 21.171 168.698 20.8985 169.202 20.3535C169.725 19.8086 169.986 19.085 169.986 18.1829C169.986 17.2432 169.725 16.5102 169.202 15.984C168.698 15.4578 167.858 15.1947 166.682 15.1947H163.406V21.171ZM176.796 31.7143V11.981H180.716V19.677L187.716 11.981H192.532L185.336 19.7897L192.756 31.7143H187.968L182.536 22.8343L180.716 24.8076V31.7143H176.796ZM193.991 31.7143L201.131 11.981H205.583L212.723 31.7143H208.579L203.343 16.4632L198.079 31.7143H193.991ZM197.127 27.2884L198.163 24.2156H208.243L209.251 27.2884H197.127Z" fill="#F5F5F5"/>
</g>
<g opacity="0.7" filter="url(#filter1_d_29_28)">
<path d="M9.9447 47.5714V39.0614H12.6012C13.2533 39.0614 13.7926 39.1708 14.2193 39.3897C14.6459 39.6004 14.9599 39.8922 15.1611 40.265C15.3624 40.6297 15.463 41.0471 15.463 41.5172C15.463 41.9791 15.3624 42.3965 15.1611 42.7694C14.9599 43.1422 14.6459 43.438 14.2193 43.6568C13.8007 43.8757 13.2613 43.9851 12.6012 43.9851H10.79V47.5714H9.9447ZM10.79 43.2556H12.5891C13.3136 43.2556 13.8288 43.1016 14.1347 42.7937C14.4406 42.4776 14.5936 42.0521 14.5936 41.5172C14.5936 40.966 14.4406 40.5405 14.1347 40.2407C13.8288 39.9327 13.3136 39.7787 12.5891 39.7787H10.79V43.2556ZM16.8784 47.5714V39.0614H17.7237V46.8785H21.7205V47.5714H16.8784ZM22.6084 47.5714L25.7238 39.0614H26.5932L29.7085 47.5714H28.815L26.1585 40.1799L23.4899 47.5714H22.6084ZM24.0333 45.2737L24.2869 44.5686H28.018L28.2716 45.2737H24.0333ZM31.0524 47.5714V39.0614H31.8976L36.5706 46.149V39.0614H37.4159V47.5714H36.5706L31.8976 40.4717V47.5714H31.0524ZM41.3599 47.5714V44.2525L38.6309 39.0614H39.5848L41.9274 43.7541H41.6376L43.9681 39.0614H44.9099L42.2051 44.2525V47.5714H41.3599ZM51.428 47.5714V39.7665H48.8922V39.0614H54.809V39.7665H52.2732V47.5714H51.428ZM56.1222 47.5714V39.0614H58.7304C59.3824 39.0614 59.9137 39.1708 60.3243 39.3897C60.7429 39.6085 61.0488 39.9043 61.242 40.2771C61.4352 40.6419 61.5318 41.0592 61.5318 41.5293C61.5318 41.9832 61.4311 42.4006 61.2299 42.7815C61.0286 43.1543 60.7187 43.4542 60.3001 43.6811C59.8815 43.9 59.3381 44.0094 58.67 44.0094H56.9674V47.5714H56.1222ZM60.6141 47.5714L58.7183 43.7419H59.6843L61.6284 47.5714H60.6141ZM56.9674 43.3164H58.67C59.3542 43.3164 59.8574 43.1503 60.1794 42.818C60.5014 42.4857 60.6624 42.0561 60.6624 41.5293C60.6624 40.9863 60.5054 40.5608 60.1914 40.2528C59.8775 39.9367 59.3663 39.7787 58.6579 39.7787H56.9674V43.3164ZM63.2091 47.5714V39.0614H68.341V39.7665H64.0544V42.9396H67.9788V43.6447H64.0544V46.8663H68.341V47.5714H63.2091ZM69.9895 47.5714V39.0614H70.8348L75.5078 46.149V39.0614H76.353V47.5714H75.5078L70.8348 40.4717V47.5714H69.9895ZM78.2322 47.5714V39.0614H79.0774V47.5714H78.2322ZM80.9561 47.5714V39.0614H81.8013L86.4743 46.149V39.0614H87.3196V47.5714H86.4743L81.8013 40.4717V47.5714H80.9561ZM92.7971 47.7173C92.0082 47.7173 91.3159 47.535 90.7202 47.1702C90.1245 46.7974 89.6616 46.2828 89.3316 45.6263C89.0096 44.9617 88.8486 44.1917 88.8486 43.3164C88.8486 42.4492 89.0136 41.6874 89.3436 41.0309C89.6817 40.3663 90.1527 39.8476 90.7564 39.4748C91.3682 39.102 92.0887 38.9155 92.9178 38.9155C93.8516 38.9155 94.6325 39.1425 95.2604 39.5963C95.8883 40.0502 96.2908 40.6824 96.4679 41.4929H95.4777C95.365 40.9417 95.0833 40.5041 94.6325 40.1799C94.1897 39.8557 93.6182 39.6936 92.9178 39.6936C92.2738 39.6936 91.7103 39.8395 91.2273 40.1313C90.7524 40.423 90.3821 40.8404 90.1164 41.3834C89.8508 41.9184 89.718 42.5627 89.718 43.3164C89.718 44.0702 89.8468 44.7185 90.1044 45.2616C90.37 45.8046 90.7323 46.222 91.1911 46.5138C91.658 46.8055 92.1933 46.9514 92.7971 46.9514C93.747 46.9514 94.4594 46.6677 94.9344 46.1004C95.4174 45.5331 95.6911 44.751 95.7555 43.7541H93.2076V43.0611H96.6249V47.5714H95.8521L95.7796 46.0639C95.5703 46.4124 95.3288 46.7123 95.0551 46.9636C94.7895 47.2148 94.4715 47.4053 94.1012 47.535C93.7389 47.6565 93.3042 47.7173 92.7971 47.7173ZM102.033 47.7173C101.228 47.7173 100.52 47.535 99.9079 47.1702C99.2961 46.7974 98.8171 46.2828 98.4709 45.6263C98.1328 44.9617 97.9638 44.1917 97.9638 43.3164C97.9638 42.4492 98.1328 41.6874 98.4709 41.0309C98.8171 40.3663 99.2961 39.8476 99.9079 39.4748C100.52 39.102 101.228 38.9155 102.033 38.9155C102.862 38.9155 103.583 39.102 104.194 39.4748C104.806 39.8476 105.277 40.3663 105.607 41.0309C105.945 41.6874 106.114 42.4492 106.114 43.3164C106.114 44.1917 105.945 44.9617 105.607 45.6263C105.277 46.2828 104.806 46.7974 104.194 47.1702C103.583 47.535 102.862 47.7173 102.033 47.7173ZM102.045 46.9757C102.681 46.9757 103.241 46.8298 103.724 46.5381C104.207 46.2463 104.581 45.8289 104.847 45.2859C105.112 44.7348 105.245 44.0783 105.245 43.3164C105.245 42.5546 105.112 41.9021 104.847 41.3591C104.581 40.8161 104.207 40.3987 103.724 40.1069C103.241 39.8152 102.681 39.6693 102.045 39.6693C101.409 39.6693 100.85 39.8152 100.367 40.1069C99.8837 40.3987 99.5054 40.8161 99.2317 41.3591C98.966 41.9021 98.8332 42.5546 98.8332 43.3164C98.8332 44.0783 98.966 44.7348 99.2317 45.2859C99.5054 45.8289 99.8837 46.2463 100.367 46.5381C100.85 46.8298 101.409 46.9757 102.045 46.9757ZM109.085 47.5714L106.742 39.0614H107.648L109.58 46.5259L111.742 39.0614H112.683L114.784 46.5381L116.729 39.0614H117.634L115.255 47.5714H114.301L112.176 40.3136L110.015 47.5714H109.085ZM118.903 47.5714V39.0614H124.035V39.7665H119.748V42.9396H123.672V43.6447H119.748V46.8663H124.035V47.5714H118.903ZM129.008 48.7871V38.8183H129.854V48.7871H129.008ZM135.058 47.5714V39.0614H137.714C138.366 39.0614 138.906 39.1708 139.332 39.3897C139.759 39.6004 140.073 39.8922 140.274 40.265C140.475 40.6297 140.576 41.0471 140.576 41.5172C140.576 41.9791 140.475 42.3965 140.274 42.7694C140.073 43.1422 139.759 43.438 139.332 43.6568C138.914 43.8757 138.374 43.9851 137.714 43.9851H135.903V47.5714H135.058ZM135.903 43.2556H137.702C138.427 43.2556 138.942 43.1016 139.248 42.7937C139.554 42.4776 139.707 42.0521 139.707 41.5172C139.707 40.966 139.554 40.5405 139.248 40.2407C138.942 39.9327 138.427 39.7787 137.702 39.7787H135.903V43.2556ZM141.992 47.5714V39.0614H144.6C145.252 39.0614 145.783 39.1708 146.194 39.3897C146.612 39.6085 146.918 39.9043 147.111 40.2771C147.305 40.6419 147.401 41.0592 147.401 41.5293C147.401 41.9832 147.301 42.4006 147.099 42.7815C146.898 43.1543 146.588 43.4542 146.169 43.6811C145.751 43.9 145.208 44.0094 144.539 44.0094H142.837V47.5714H141.992ZM146.483 47.5714L144.588 43.7419H145.554L147.498 47.5714H146.483ZM142.837 43.3164H144.539C145.224 43.3164 145.727 43.1503 146.049 42.818C146.371 42.4857 146.532 42.0561 146.532 41.5293C146.532 40.9863 146.375 40.5608 146.061 40.2528C145.747 39.9367 145.236 39.7787 144.527 39.7787H142.837V43.3164ZM152.798 47.7173C151.993 47.7173 151.284 47.535 150.672 47.1702C150.061 46.7974 149.582 46.2828 149.235 45.6263C148.897 44.9617 148.728 44.1917 148.728 43.3164C148.728 42.4492 148.897 41.6874 149.235 41.0309C149.582 40.3663 150.061 39.8476 150.672 39.4748C151.284 39.102 151.993 38.9155 152.798 38.9155C153.627 38.9155 154.347 39.102 154.959 39.4748C155.571 39.8476 156.042 40.3663 156.372 41.0309C156.71 41.6874 156.879 42.4492 156.879 43.3164C156.879 44.1917 156.71 44.9617 156.372 45.6263C156.042 46.2828 155.571 46.7974 154.959 47.1702C154.347 47.535 153.627 47.7173 152.798 47.7173ZM152.81 46.9757C153.446 46.9757 154.005 46.8298 154.488 46.5381C154.971 46.2463 155.345 45.8289 155.611 45.2859C155.877 44.7348 156.01 44.0783 156.01 43.3164C156.01 42.5546 155.877 41.9021 155.611 41.3591C155.345 40.8161 154.971 40.3987 154.488 40.1069C154.005 39.8152 153.446 39.6693 152.81 39.6693C152.174 39.6693 151.614 39.8152 151.131 40.1069C150.648 40.3987 150.27 40.8161 149.996 41.3591C149.731 41.9021 149.598 42.5546 149.598 43.3164C149.598 44.0783 149.731 44.7348 149.996 45.2859C150.27 45.8289 150.648 46.2463 151.131 46.5381C151.614 46.8298 152.174 46.9757 152.81 46.9757ZM159.85 47.5714L157.507 39.0614H158.413L160.345 46.5259L162.506 39.0614H163.448L165.549 46.5381L167.493 39.0614H168.399L166.02 47.5714H165.066L162.941 40.3136L160.779 47.5714H159.85ZM168.275 47.5714L171.39 39.0614H172.26L175.375 47.5714H174.481L171.825 40.1799L169.156 47.5714H168.275ZM169.7 45.2737L169.953 44.5686H173.685L173.938 45.2737H169.7ZM176.719 47.5714V39.0614H179.109C180.108 39.0614 180.926 39.2316 181.561 39.572C182.205 39.9124 182.681 40.4028 182.985 41.043C183.3 41.6833 183.456 42.4492 183.456 43.3407C183.456 44.2161 183.3 44.9698 182.985 45.602C182.681 46.2341 182.205 46.7204 181.561 47.0608C180.926 47.4012 180.108 47.5714 179.109 47.5714H176.719ZM177.564 46.8663H179.109C179.963 46.8663 180.644 46.7245 181.151 46.4408C181.657 46.1571 182.025 45.7519 182.249 45.2251C182.474 44.6983 182.588 44.0702 182.588 43.3407C182.588 42.6032 182.474 41.967 182.249 41.4321C182.025 40.8972 181.657 40.4879 181.151 40.2042C180.644 39.9124 179.963 39.7665 179.109 39.7665H177.564V46.8663ZM184.574 47.5714V46.8906L188.885 39.8152H184.648V39.0614H189.875V39.7422L185.565 46.8177H189.936V47.5714H184.574ZM191.412 47.5714V39.0614H196.544V39.7665H192.257V42.9396H196.182V43.6447H192.257V46.8663H196.544V47.5714H191.412ZM198.193 47.5714V39.0614H199.038L203.711 46.149V39.0614H204.556V47.5714H203.711L199.038 40.4717V47.5714H198.193ZM206.435 47.5714V39.0614H207.281V47.5714H206.435ZM209.158 47.5714V39.0614H214.291V39.7665H210.004V42.9396H213.929V43.6447H210.004V46.8663H214.291V47.5714H209.158Z" fill="#F5F5F5"/>
</g>
<path d="M10.5 34.3571H213.5" stroke="#F5F5F5" stroke-width="0.5"/>
</g>
<defs>
<filter id="filter0_d_29_28" x="1.47607" y="5.98095" width="221.247" height="40.0716" filterUnits="userSpaceOnUse" color-interpolation-filters="sRGB">
<feFlood flood-opacity="0" result="BackgroundImageFix"/>
<feColorMatrix in="SourceAlpha" type="matrix" values="0 0 0 0 0 0 0 0 0 0 0 0 0 0 0 0 0 0 127 0" result="hardAlpha"/>
<feOffset dy="4"/>
<feGaussianBlur stdDeviation="5"/>
<feComposite in2="hardAlpha" operator="out"/>
<feColorMatrix type="matrix" values="0 0 0 0 0 0 0 0 0 0 0 0 0 0 0 0 0 0 0.1 0"/>
<feBlend mode="normal" in2="BackgroundImageFix" result="effect1_dropShadow_29_28"/>
<feBlend mode="normal" in="SourceGraphic" in2="effect1_dropShadow_29_28" result="shape"/>
</filter>
<filter id="filter1_d_29_28" x="-0.0552979" y="32.8183" width="224.346" height="29.9689" filterUnits="userSpaceOnUse" color-interpolation-filters="sRGB">
<feFlood flood-opacity="0" result="BackgroundImageFix"/>
<feColorMatrix in="SourceAlpha" type="matrix" values="0 0 0 0 0 0 0 0 0 0 0 0 0 0 0 0 0 0 127 0" result="hardAlpha"/>
<feOffset dy="4"/>
<feGaussianBlur stdDeviation="5"/>
<feComposite in2="hardAlpha" operator="out"/>
<feColorMatrix type="matrix" values="0 0 0 0 0 0 0 0 0 0 0 0 0 0 0 0 0 0 0.1 0"/>
<feBlend mode="normal" in2="BackgroundImageFix" result="effect1_dropShadow_29_28"/>
<feBlend mode="normal" in="SourceGraphic" in2="effect1_dropShadow_29_28" result="shape"/>
</filter>
<clipPath id="clip0_29_28">
<rect width="224" height="74" fill="white"/>
</clipPath>
</defs>
</svg>
