<svg width="565" height="397" viewBox="0 0 565 397" fill="none" xmlns="http://www.w3.org/2000/svg">
<g opacity="0.55" filter="url(#filter0_f_392_28)">
<rect x="31.0012" y="327.297" width="37.9189" height="39.1429" fill="#3C6300" stroke="#F9FAFB"/>
<rect x="108.839" y="287.154" width="37.9189" height="79.2857" fill="#3C6300" stroke="#F9FAFB"/>
<rect x="186.677" y="247.012" width="37.9189" height="119.429" fill="#3C6300" stroke="#F9FAFB"/>
<rect x="264.515" y="206.869" width="37.9189" height="159.571" fill="#3C6300" stroke="#F9FAFB"/>
<rect x="342.353" y="166.726" width="37.9189" height="199.714" fill="#3C6300" stroke="#F9FAFB"/>
<rect x="420.19" y="126.583" width="37.9189" height="239.857" fill="#3C6300" stroke="#F9FAFB"/>
<rect x="496.083" y="86.4402" width="37.9189" height="280" fill="#3C6300" stroke="#F9FAFB"/>
</g>
<g opacity="0.55" filter="url(#filter1_df_392_28)">
<path d="M550.383 30.7161C551.203 28.079 549.729 25.277 547.092 24.4575L504.119 11.1041C501.482 10.2846 498.68 11.7581 497.861 14.3951C497.041 17.0322 498.515 19.8342 501.152 20.6536L539.35 32.5234L527.48 70.7217C526.661 73.3587 528.134 76.1607 530.771 76.9802C533.409 77.7996 536.211 76.3262 537.03 73.6891L550.383 30.7161ZM19.8284 311.366L547.936 33.6578L543.282 24.8069L15.1741 302.515L19.8284 311.366Z" fill="#3C6300"/>
</g>
<defs>
<filter id="filter0_f_392_28" x="0.501221" y="55.9402" width="564" height="341" filterUnits="userSpaceOnUse" color-interpolation-filters="sRGB">
<feFlood flood-opacity="0" result="BackgroundImageFix"/>
<feBlend mode="normal" in="SourceGraphic" in2="BackgroundImageFix" result="shape"/>
<feGaussianBlur stdDeviation="15" result="effect1_foregroundBlur_392_28"/>
</filter>
<filter id="filter1_df_392_28" x="5.17407" y="0.877502" width="555.436" height="320.488" filterUnits="userSpaceOnUse" color-interpolation-filters="sRGB">
<feFlood flood-opacity="0" result="BackgroundImageFix"/>
<feColorMatrix in="SourceAlpha" type="matrix" values="0 0 0 0 0 0 0 0 0 0 0 0 0 0 0 0 0 0 127 0" result="hardAlpha"/>
<feOffset dy="4"/>
<feGaussianBlur stdDeviation="2"/>
<feComposite in2="hardAlpha" operator="out"/>
<feColorMatrix type="matrix" values="0 0 0 0 0 0 0 0 0 0 0 0 0 0 0 0 0 0 0.25 0"/>
<feBlend mode="normal" in2="BackgroundImageFix" result="effect1_dropShadow_392_28"/>
<feBlend mode="normal" in="SourceGraphic" in2="effect1_dropShadow_392_28" result="shape"/>
<feGaussianBlur stdDeviation="5" result="effect2_foregroundBlur_392_28"/>
</filter>
</defs>
</svg>
