<svg width="134" height="41" viewBox="0 0 134 41" fill="none" xmlns="http://www.w3.org/2000/svg">
<path d="M133.008 27.1525C133.294 26.8411 133.294 26.3363 133.008 26.025L128.346 20.952C128.059 20.6406 127.596 20.6406 127.309 20.952C127.023 21.2632 127.023 21.768 127.309 22.0793L131.454 26.5887L127.309 31.0981C127.023 31.4094 127.023 31.9142 127.309 32.2254C127.596 32.5368 128.059 32.5368 128.346 32.2254L133.008 27.1525ZM0.624512 27.3859H132.49V25.7915H0.624512V27.3859Z" fill="#9AE600"/>
<path d="M0.624512 22.9531V0.309479H5.41196V9.65227H15.1305V0.309479H19.9069V22.9531H15.1305V13.5994H5.41196V22.9531H0.624512ZM23.8541 22.9531V0.309479H39.1118V4.25676H28.6415V9.65227H38.3269V13.5994H28.6415V19.006H39.1561V22.9531H23.8541ZM42.9181 22.9531V0.309479H51.8516C53.5617 0.309479 55.0211 0.615379 56.2299 1.22718C57.4462 1.83166 58.3712 2.69036 59.0051 3.80343C59.6464 4.90903 59.967 6.21 59.967 7.70634C59.967 9.21 59.6426 10.5035 58.9941 11.5871C58.3454 12.6633 57.4056 13.4889 56.1747 14.0638C54.9511 14.6387 53.4695 14.9262 51.73 14.9262H45.7485V11.0786H50.956C51.87 11.0786 52.6292 10.9532 53.2337 10.7026C53.8382 10.452 54.2877 10.076 54.5826 9.57474C54.8848 9.07363 55.0359 8.45078 55.0359 7.70634C55.0359 6.95444 54.8848 6.32053 54.5826 5.80463C54.2877 5.28857 53.8344 4.89798 53.2226 4.63255C52.6181 4.35981 51.8553 4.2236 50.9339 4.2236H47.7055V22.9531H42.9181ZM55.1464 12.6485L60.7741 22.9531H55.4892L49.983 12.6485H55.1464ZM63.107 22.9531V20.1116L74.4066 4.25676H63.0849V0.309479H80.4214V3.151L69.1107 19.006H80.4435V22.9531H63.107ZM103.861 11.6314C103.861 14.1005 103.393 16.2013 102.457 17.9335C101.528 19.6657 100.26 20.9888 98.6533 21.9027C97.0539 22.8094 95.2554 23.2627 93.2578 23.2627C91.2456 23.2627 89.4397 22.8057 87.8402 21.8917C86.2406 20.9777 84.9766 19.6547 84.0478 17.9225C83.1191 16.1903 82.6547 14.0932 82.6547 11.6314C82.6547 9.16205 83.1191 7.06139 84.0478 5.3292C84.9766 3.59701 86.2406 2.27751 87.8402 1.37102C89.4397 0.456903 91.2456 0 93.2578 0C95.2554 0 97.0539 0.456903 98.6533 1.37102C100.26 2.27751 101.528 3.59701 102.457 5.3292C103.393 7.06139 103.861 9.16205 103.861 11.6314ZM99.0072 11.6314C99.0072 10.0318 98.7676 8.68289 98.2886 7.5846C97.8167 6.48632 97.1497 5.65347 96.2872 5.08588C95.4249 4.51829 94.4151 4.23465 93.2578 4.23465C92.1007 4.23465 91.0908 4.51829 90.2284 5.08588C89.366 5.65347 88.6953 6.48632 88.2161 7.5846C87.7444 8.68289 87.5085 10.0318 87.5085 11.6314C87.5085 13.2308 87.7444 14.5797 88.2161 15.678C88.6953 16.7762 89.366 17.6091 90.2284 18.1767C91.0908 18.7443 92.1007 19.0281 93.2578 19.0281C94.4151 19.0281 95.4249 18.7443 96.2872 18.1767C97.1497 17.6091 97.8167 16.7762 98.2886 15.678C98.7676 14.5797 99.0072 13.2308 99.0072 11.6314ZM122.423 7.62882C122.267 7.09081 122.049 6.61538 121.77 6.20269C121.49 5.78252 121.146 5.42867 120.741 5.14114C120.343 4.8463 119.886 4.6215 119.37 4.46676C118.862 4.31202 118.298 4.23465 117.679 4.23465C116.521 4.23465 115.504 4.52203 114.627 5.09693C113.757 5.67184 113.079 6.50858 112.593 7.60671C112.106 8.69767 111.863 10.0318 111.863 11.6093C111.863 13.1865 112.103 14.5281 112.582 15.6337C113.061 16.7393 113.739 17.5834 114.616 18.1656C115.493 18.7405 116.529 19.0281 117.723 19.0281C118.806 19.0281 119.731 18.8364 120.498 18.4532C121.272 18.0624 121.862 17.5134 122.267 16.8057C122.679 16.0981 122.886 15.2615 122.886 14.2959L123.859 14.4396H118.021V10.8352H127.496V13.6878C127.496 15.678 127.077 17.388 126.237 18.8181C125.396 20.2406 124.239 21.3389 122.765 22.1127C121.291 22.8794 119.603 23.2627 117.701 23.2627C115.578 23.2627 113.713 22.7946 112.106 21.8585C110.499 20.915 109.246 19.5771 108.347 17.8451C107.455 16.1054 107.009 14.0417 107.009 11.6535C107.009 9.81806 107.275 8.18177 107.805 6.74443C108.343 5.29962 109.095 4.07617 110.061 3.07363C111.026 2.07124 112.15 1.30829 113.433 0.784909C114.716 0.261688 116.105 0 117.601 0C118.884 0 120.078 0.187901 121.183 0.563855C122.289 0.932336 123.269 1.45571 124.124 2.13383C124.987 2.81194 125.69 3.61912 126.237 4.55519C126.781 5.48394 127.132 6.50859 127.287 7.62882H122.423Z" fill="#E4E4E7"/>
<path d="M0.782843 39V34.1H2.61684C3.01351 34.1 3.34251 34.1677 3.60384 34.303C3.86518 34.4383 4.05884 34.6203 4.18484 34.849C4.31084 35.0777 4.37384 35.339 4.37384 35.633C4.37384 35.9037 4.31318 36.1533 4.19184 36.382C4.07051 36.6107 3.87918 36.7973 3.61784 36.942C3.35651 37.082 3.02284 37.152 2.61684 37.152H1.72784V39H0.782843ZM1.72784 36.389H2.56084C2.86418 36.389 3.08118 36.3213 3.21184 36.186C3.34718 36.046 3.41484 35.8617 3.41484 35.633C3.41484 35.3903 3.34718 35.2037 3.21184 35.073C3.08118 34.9377 2.86418 34.87 2.56084 34.87H1.72784V36.389ZM4.59265 39V34.1H6.41965C6.81631 34.1 7.14298 34.1677 7.39965 34.303C7.65631 34.4383 7.84765 34.6203 7.97365 34.849C8.09965 35.073 8.16265 35.3227 8.16265 35.598C8.16265 35.8593 8.10198 36.1043 7.98065 36.333C7.85931 36.557 7.66798 36.739 7.40665 36.879C7.14998 37.0143 6.81865 37.082 6.41265 37.082H5.53765V39H4.59265ZM7.13365 39L6.12565 36.844H7.14765L8.21165 39H7.13365ZM5.53765 36.396H6.36365C6.64831 36.396 6.85831 36.326 6.99365 36.186C7.12898 36.046 7.19665 35.8617 7.19665 35.633C7.19665 35.4043 7.12898 35.2247 6.99365 35.094C6.86298 34.9587 6.65298 34.891 6.36365 34.891H5.53765V36.396ZM10.7797 39.084C10.3037 39.084 9.88366 38.9767 9.51966 38.762C9.15566 38.5473 8.871 38.251 8.66566 37.873C8.46033 37.4903 8.35766 37.0493 8.35766 36.55C8.35766 36.0507 8.46033 35.612 8.66566 35.234C8.871 34.8513 9.15566 34.5527 9.51966 34.338C9.88366 34.1233 10.3037 34.016 10.7797 34.016C11.2603 34.016 11.6827 34.1233 12.0467 34.338C12.4107 34.5527 12.693 34.8513 12.8937 35.234C13.099 35.612 13.2017 36.0507 13.2017 36.55C13.2017 37.0493 13.099 37.4903 12.8937 37.873C12.693 38.251 12.4107 38.5473 12.0467 38.762C11.6827 38.9767 11.2603 39.084 10.7797 39.084ZM10.7797 38.237C11.0783 38.237 11.335 38.1693 11.5497 38.034C11.769 37.894 11.9393 37.698 12.0607 37.446C12.182 37.194 12.2427 36.8953 12.2427 36.55C12.2427 36.2 12.182 35.9013 12.0607 35.654C11.9393 35.402 11.769 35.2083 11.5497 35.073C11.335 34.9377 11.0783 34.87 10.7797 34.87C10.4857 34.87 10.229 34.9377 10.0097 35.073C9.79033 35.2083 9.62 35.402 9.49866 35.654C9.37733 35.9013 9.31666 36.2 9.31666 36.55C9.31666 36.8953 9.37733 37.194 9.49866 37.446C9.62 37.698 9.79033 37.894 10.0097 38.034C10.229 38.1693 10.4857 38.237 10.7797 38.237ZM13.5179 39V34.1H16.7099V34.863H14.4629V36.172H16.2619V36.914H14.4629V39H13.5179ZM16.9176 39V34.1H20.1376V34.863H17.8626V36.144H19.9276V36.879H17.8626V38.237H20.1376V39H16.9176ZM22.1956 39.084C21.841 39.084 21.5236 39.0233 21.2436 38.902C20.9683 38.7807 20.749 38.6033 20.5856 38.37C20.427 38.1367 20.3453 37.8543 20.3406 37.523H21.3416C21.3463 37.6677 21.3836 37.7983 21.4536 37.915C21.5236 38.0317 21.6193 38.125 21.7406 38.195C21.8666 38.2603 22.016 38.293 22.1886 38.293C22.338 38.293 22.4663 38.2697 22.5736 38.223C22.6856 38.1717 22.772 38.1017 22.8326 38.013C22.8933 37.9243 22.9236 37.8193 22.9236 37.698C22.9236 37.558 22.8886 37.4413 22.8186 37.348C22.7533 37.2547 22.66 37.1753 22.5386 37.11C22.422 37.0447 22.2843 36.9863 22.1256 36.935C21.9716 36.879 21.8083 36.8207 21.6356 36.76C21.2483 36.634 20.952 36.466 20.7466 36.256C20.546 36.046 20.4456 35.7683 20.4456 35.423C20.4456 35.129 20.5156 34.877 20.6556 34.667C20.8003 34.457 20.9986 34.296 21.2506 34.184C21.5026 34.072 21.7896 34.016 22.1116 34.016C22.443 34.016 22.7323 34.0743 22.9796 34.191C23.2316 34.303 23.43 34.4663 23.5746 34.681C23.724 34.8957 23.801 35.1477 23.8056 35.437H22.7976C22.793 35.3297 22.7603 35.2293 22.6996 35.136C22.6436 35.038 22.5643 34.961 22.4616 34.905C22.359 34.8443 22.2376 34.814 22.0976 34.814C21.9763 34.8093 21.8643 34.828 21.7616 34.87C21.6636 34.912 21.5843 34.975 21.5236 35.059C21.4676 35.1383 21.4396 35.2387 21.4396 35.36C21.4396 35.4767 21.4676 35.5747 21.5236 35.654C21.5843 35.7333 21.666 35.8033 21.7686 35.864C21.8713 35.92 21.9926 35.9737 22.1326 36.025C22.2726 36.0717 22.4243 36.1207 22.5876 36.172C22.8303 36.256 23.0543 36.3563 23.2596 36.473C23.465 36.585 23.6283 36.732 23.7496 36.914C23.871 37.096 23.9316 37.3363 23.9316 37.635C23.9316 37.8917 23.864 38.1297 23.7286 38.349C23.5933 38.5683 23.3973 38.7457 23.1406 38.881C22.8886 39.0163 22.5736 39.084 22.1956 39.084ZM25.5522 39.084C25.2349 39.084 24.9549 39.0233 24.7122 38.902C24.4742 38.7807 24.2899 38.6033 24.1592 38.37C24.0286 38.132 23.9632 37.845 23.9632 37.509H24.9082C24.9082 37.6583 24.9292 37.789 24.9712 37.901C25.0179 38.0083 25.0856 38.0923 25.1742 38.153C25.2676 38.209 25.3866 38.237 25.5312 38.237C25.6712 38.237 25.7832 38.2113 25.8672 38.16C25.9559 38.104 26.0189 38.027 26.0562 37.929C26.0982 37.8263 26.1192 37.705 26.1192 37.565V34.1H27.0642V37.565C27.0642 38.055 26.9266 38.4307 26.6512 38.692C26.3806 38.9533 26.0142 39.084 25.5522 39.084ZM29.8013 39.084C29.3253 39.084 28.9053 38.9767 28.5413 38.762C28.1773 38.5473 27.8927 38.251 27.6873 37.873C27.482 37.4903 27.3793 37.0493 27.3793 36.55C27.3793 36.0507 27.482 35.612 27.6873 35.234C27.8927 34.8513 28.1773 34.5527 28.5413 34.338C28.9053 34.1233 29.3253 34.016 29.8013 34.016C30.282 34.016 30.7043 34.1233 31.0683 34.338C31.4323 34.5527 31.7147 34.8513 31.9153 35.234C32.1207 35.612 32.2233 36.0507 32.2233 36.55C32.2233 37.0493 32.1207 37.4903 31.9153 37.873C31.7147 38.251 31.4323 38.5473 31.0683 38.762C30.7043 38.9767 30.282 39.084 29.8013 39.084ZM29.8013 38.237C30.1 38.237 30.3567 38.1693 30.5713 38.034C30.7907 37.894 30.961 37.698 31.0823 37.446C31.2037 37.194 31.2643 36.8953 31.2643 36.55C31.2643 36.2 31.2037 35.9013 31.0823 35.654C30.961 35.402 30.7907 35.2083 30.5713 35.073C30.3567 34.9377 30.1 34.87 29.8013 34.87C29.5073 34.87 29.2507 34.9377 29.0313 35.073C28.812 35.2083 28.6417 35.402 28.5203 35.654C28.399 35.9013 28.3383 36.2 28.3383 36.55C28.3383 36.8953 28.399 37.194 28.5203 37.446C28.6417 37.698 28.812 37.894 29.0313 38.034C29.2507 38.1693 29.5073 38.237 29.8013 38.237ZM32.5396 39V34.1H33.4846L35.7386 37.481V34.1H36.6836V39H35.7386L33.4846 35.626V39H32.5396ZM36.8412 39L38.6262 34.1H39.6972L41.4822 39H40.4812L39.1582 35.178L37.8282 39H36.8412ZM37.6252 37.887L37.8772 37.152H40.3692L40.6142 37.887H37.6252ZM41.6221 39V34.1H42.5671V38.265H44.7161V39H41.6221ZM45.0354 39V34.1H45.9804L48.2344 37.481V34.1H49.1794V39H48.2344L45.9804 35.626V39H45.0354ZM49.645 39V34.1H52.865V34.863H50.59V36.144H52.655V36.879H50.59V38.237H52.865V39H49.645ZM57.238 39.084C56.8833 39.084 56.566 39.0233 56.286 38.902C56.0107 38.7807 55.7913 38.6033 55.628 38.37C55.4693 38.1367 55.3877 37.8543 55.383 37.523H56.384C56.3887 37.6677 56.426 37.7983 56.496 37.915C56.566 38.0317 56.6617 38.125 56.783 38.195C56.909 38.2603 57.0583 38.293 57.231 38.293C57.3803 38.293 57.5087 38.2697 57.616 38.223C57.728 38.1717 57.8143 38.1017 57.875 38.013C57.9357 37.9243 57.966 37.8193 57.966 37.698C57.966 37.558 57.931 37.4413 57.861 37.348C57.7957 37.2547 57.7023 37.1753 57.581 37.11C57.4643 37.0447 57.3267 36.9863 57.168 36.935C57.014 36.879 56.8507 36.8207 56.678 36.76C56.2907 36.634 55.9943 36.466 55.789 36.256C55.5883 36.046 55.488 35.7683 55.488 35.423C55.488 35.129 55.558 34.877 55.698 34.667C55.8427 34.457 56.041 34.296 56.293 34.184C56.545 34.072 56.832 34.016 57.154 34.016C57.4853 34.016 57.7747 34.0743 58.022 34.191C58.274 34.303 58.4723 34.4663 58.617 34.681C58.7663 34.8957 58.8433 35.1477 58.848 35.437H57.84C57.8353 35.3297 57.8027 35.2293 57.742 35.136C57.686 35.038 57.6067 34.961 57.504 34.905C57.4013 34.8443 57.28 34.814 57.14 34.814C57.0187 34.8093 56.9067 34.828 56.804 34.87C56.706 34.912 56.6267 34.975 56.566 35.059C56.51 35.1383 56.482 35.2387 56.482 35.36C56.482 35.4767 56.51 35.5747 56.566 35.654C56.6267 35.7333 56.7083 35.8033 56.811 35.864C56.9137 35.92 57.035 35.9737 57.175 36.025C57.315 36.0717 57.4667 36.1207 57.63 36.172C57.8727 36.256 58.0967 36.3563 58.302 36.473C58.5073 36.585 58.6707 36.732 58.792 36.914C58.9133 37.096 58.974 37.3363 58.974 37.635C58.974 37.8917 58.9063 38.1297 58.771 38.349C58.6357 38.5683 58.4397 38.7457 58.183 38.881C57.931 39.0163 57.616 39.084 57.238 39.084ZM60.3788 39V34.863H58.9438V34.1H62.7448V34.863H61.3168V39H60.3788ZM62.9245 39V34.1H64.7515C65.1482 34.1 65.4749 34.1677 65.7315 34.303C65.9882 34.4383 66.1795 34.6203 66.3055 34.849C66.4315 35.073 66.4945 35.3227 66.4945 35.598C66.4945 35.8593 66.4339 36.1043 66.3125 36.333C66.1912 36.557 65.9999 36.739 65.7385 36.879C65.4819 37.0143 65.1505 37.082 64.7445 37.082H63.8695V39H62.9245ZM65.4655 39L64.4575 36.844H65.4795L66.5435 39H65.4655ZM63.8695 36.396H64.6955C64.9802 36.396 65.1902 36.326 65.3255 36.186C65.4609 36.046 65.5285 35.8617 65.5285 35.633C65.5285 35.4043 65.4609 35.2247 65.3255 35.094C65.1949 34.9587 64.9849 34.891 64.6955 34.891H63.8695V36.396ZM69.1115 39.084C68.6355 39.084 68.2155 38.9767 67.8515 38.762C67.4875 38.5473 67.2029 38.251 66.9975 37.873C66.7922 37.4903 66.6895 37.0493 66.6895 36.55C66.6895 36.0507 66.7922 35.612 66.9975 35.234C67.2029 34.8513 67.4875 34.5527 67.8515 34.338C68.2155 34.1233 68.6355 34.016 69.1115 34.016C69.5922 34.016 70.0145 34.1233 70.3785 34.338C70.7425 34.5527 71.0249 34.8513 71.2255 35.234C71.4309 35.612 71.5335 36.0507 71.5335 36.55C71.5335 37.0493 71.4309 37.4903 71.2255 37.873C71.0249 38.251 70.7425 38.5473 70.3785 38.762C70.0145 38.9767 69.5922 39.084 69.1115 39.084ZM69.1115 38.237C69.4102 38.237 69.6669 38.1693 69.8815 38.034C70.1009 37.894 70.2712 37.698 70.3925 37.446C70.5139 37.194 70.5745 36.8953 70.5745 36.55C70.5745 36.2 70.5139 35.9013 70.3925 35.654C70.2712 35.402 70.1009 35.2083 69.8815 35.073C69.6669 34.9377 69.4102 34.87 69.1115 34.87C68.8175 34.87 68.5609 34.9377 68.3415 35.073C68.1222 35.2083 67.9519 35.402 67.8305 35.654C67.7092 35.9013 67.6485 36.2 67.6485 36.55C67.6485 36.8953 67.7092 37.194 67.8305 37.446C67.9519 37.698 68.1222 37.894 68.3415 38.034C68.5609 38.1693 68.8175 38.237 69.1115 38.237ZM71.8498 39V34.1H72.7948L75.0488 37.481V34.1H75.9938V39H75.0488L72.7948 35.626V39H71.8498ZM77.7264 39V37.278L76.0744 34.1H77.1454L78.3004 36.522H78.1114L79.2594 34.1H80.3234L78.6714 37.278V39H77.7264ZM82.7277 39V34.1H83.6727V39H82.7277ZM84.1449 39V34.1H85.0899L87.3439 37.481V34.1H88.2889V39H87.3439L85.0899 35.626V39H84.1449ZM89.8955 39V34.863H88.4605V34.1H92.2615V34.863H90.8335V39H89.8955ZM92.4413 39V34.1H95.6613V34.863H93.3863V36.144H95.4513V36.879H93.3863V38.237H95.6613V39H92.4413ZM96.0323 39V34.1H97.8593C98.256 34.1 98.5827 34.1677 98.8393 34.303C99.096 34.4383 99.2873 34.6203 99.4133 34.849C99.5393 35.073 99.6023 35.3227 99.6023 35.598C99.6023 35.8593 99.5417 36.1043 99.4203 36.333C99.299 36.557 99.1077 36.739 98.8463 36.879C98.5897 37.0143 98.2583 37.082 97.8523 37.082H96.9773V39H96.0323ZM98.5733 39L97.5653 36.844H98.5873L99.6513 39H98.5733ZM96.9773 36.396H97.8033C98.088 36.396 98.298 36.326 98.4333 36.186C98.5687 36.046 98.6363 35.8617 98.6363 35.633C98.6363 35.4043 98.5687 35.2247 98.4333 35.094C98.3027 34.9587 98.0927 34.891 97.8033 34.891H96.9773V36.396ZM99.9583 39V34.1H100.903L103.157 37.481V34.1H104.102V39H103.157L100.903 35.626V39H99.9583ZM104.568 39V34.1H107.788V34.863H105.513V36.144H107.578V36.879H105.513V38.237H107.788V39H104.568ZM109.3 39V34.863H107.865V34.1H111.666V34.863H110.238V39H109.3ZM113.943 39.084C113.467 39.084 113.047 38.9767 112.683 38.762C112.319 38.5473 112.034 38.251 111.829 37.873C111.623 37.4903 111.521 37.0493 111.521 36.55C111.521 36.0507 111.623 35.612 111.829 35.234C112.034 34.8513 112.319 34.5527 112.683 34.338C113.047 34.1233 113.467 34.016 113.943 34.016C114.423 34.016 114.846 34.1233 115.21 34.338C115.574 34.5527 115.856 34.8513 116.057 35.234C116.262 35.612 116.365 36.0507 116.365 36.55C116.365 37.0493 116.262 37.4903 116.057 37.873C115.856 38.251 115.574 38.5473 115.21 38.762C114.846 38.9767 114.423 39.084 113.943 39.084ZM113.943 38.237C114.241 38.237 114.498 38.1693 114.713 38.034C114.932 37.894 115.102 37.698 115.224 37.446C115.345 37.194 115.406 36.8953 115.406 36.55C115.406 36.2 115.345 35.9013 115.224 35.654C115.102 35.402 114.932 35.2083 114.713 35.073C114.498 34.9377 114.241 34.87 113.943 34.87C113.649 34.87 113.392 34.9377 113.173 35.073C112.953 35.2083 112.783 35.402 112.662 35.654C112.54 35.9013 112.48 36.2 112.48 36.55C112.48 36.8953 112.54 37.194 112.662 37.446C112.783 37.698 112.953 37.894 113.173 38.034C113.392 38.1693 113.649 38.237 113.943 38.237ZM117.456 39L116.168 34.1H117.176L118.03 37.929L119.038 34.1H120.081L121.061 37.929L121.922 34.1H122.937L121.614 39H120.487L119.549 35.43L118.576 39H117.456ZM123.102 39V34.1H126.322V34.863H124.047V36.144H126.112V36.879H124.047V38.237H126.322V39H123.102Z" fill="#E4E4E7"/>
</svg>
