<svg width="875" height="414" viewBox="0 0 875 414" fill="none" xmlns="http://www.w3.org/2000/svg">
<mask id="path-1-outside-1_615_568" maskUnits="userSpaceOnUse" x="0" y="0" width="875" height="414" fill="black">
<rect fill="white" width="875" height="414"/>
<path d="M1.38086 357V6.99998H230.881V63.5H71.3809V154H198.381V209H71.3809V357H1.38086ZM198.615 357L326.115 6.99998H405.615L533.115 357H459.115L365.615 86.5L271.615 357H198.615ZM254.615 278.5L273.115 224H453.115L471.115 278.5H254.615ZM781.541 412.5L653.541 211H734.041L865.541 412.5H781.541ZM700.041 363C666.041 363 636.041 355.333 610.041 340C584.041 324.667 563.541 303.5 548.541 276.5C533.874 249.167 526.541 217.667 526.541 182C526.541 146.333 533.874 115 548.541 88C563.541 60.6667 584.041 39.3333 610.041 24C636.041 8.66666 666.041 0.999994 700.041 0.999994C734.374 0.999994 764.541 8.66666 790.541 24C816.874 39.3333 837.208 60.6667 851.541 88C866.208 115 873.541 146.333 873.541 182C873.541 217.667 866.208 249.167 851.541 276.5C837.208 303.5 816.874 324.667 790.541 340C764.541 355.333 734.374 363 700.041 363ZM700.041 300C721.041 300 739.208 295.167 754.541 285.5C769.874 275.833 781.708 262.333 790.041 245C798.374 227.333 802.541 206.333 802.541 182C802.541 157.667 798.374 136.833 790.041 119.5C781.708 101.833 769.874 88.1667 754.541 78.5C739.208 68.8333 721.041 64 700.041 64C679.374 64 661.374 68.8333 646.041 78.5C631.041 88.1667 619.208 101.833 610.541 119.5C602.208 136.833 598.041 157.667 598.041 182C598.041 206.333 602.208 227.333 610.541 245C619.208 262.333 631.041 275.833 646.041 285.5C661.374 295.167 679.374 300 700.041 300Z"/>
</mask>
<path d="M1.38086 357V6.99998H230.881V63.5H71.3809V154H198.381V209H71.3809V357H1.38086ZM198.615 357L326.115 6.99998H405.615L533.115 357H459.115L365.615 86.5L271.615 357H198.615ZM254.615 278.5L273.115 224H453.115L471.115 278.5H254.615ZM781.541 412.5L653.541 211H734.041L865.541 412.5H781.541ZM700.041 363C666.041 363 636.041 355.333 610.041 340C584.041 324.667 563.541 303.5 548.541 276.5C533.874 249.167 526.541 217.667 526.541 182C526.541 146.333 533.874 115 548.541 88C563.541 60.6667 584.041 39.3333 610.041 24C636.041 8.66666 666.041 0.999994 700.041 0.999994C734.374 0.999994 764.541 8.66666 790.541 24C816.874 39.3333 837.208 60.6667 851.541 88C866.208 115 873.541 146.333 873.541 182C873.541 217.667 866.208 249.167 851.541 276.5C837.208 303.5 816.874 324.667 790.541 340C764.541 355.333 734.374 363 700.041 363ZM700.041 300C721.041 300 739.208 295.167 754.541 285.5C769.874 275.833 781.708 262.333 790.041 245C798.374 227.333 802.541 206.333 802.541 182C802.541 157.667 798.374 136.833 790.041 119.5C781.708 101.833 769.874 88.1667 754.541 78.5C739.208 68.8333 721.041 64 700.041 64C679.374 64 661.374 68.8333 646.041 78.5C631.041 88.1667 619.208 101.833 610.541 119.5C602.208 136.833 598.041 157.667 598.041 182C598.041 206.333 602.208 227.333 610.541 245C619.208 262.333 631.041 275.833 646.041 285.5C661.374 295.167 679.374 300 700.041 300Z" fill="url(#paint0_linear_615_568)"/>
<path d="M1.38086 357H0.380859V358H1.38086V357ZM1.38086 6.99997V5.99997H0.380859V6.99997H1.38086ZM230.881 6.99997H231.881V5.99997H230.881V6.99997ZM230.881 63.5V64.5H231.881V63.5H230.881ZM71.3809 63.5V62.5H70.3809V63.5H71.3809ZM71.3809 154H70.3809V155H71.3809V154ZM198.381 154H199.381V153H198.381V154ZM198.381 209V210H199.381V209H198.381ZM71.3809 209V208H70.3809V209H71.3809ZM71.3809 357V358H72.3809V357H71.3809ZM1.38086 357H2.38086V6.99997H1.38086H0.380859V357H1.38086ZM1.38086 6.99997V7.99997H230.881V6.99997V5.99997H1.38086V6.99997ZM230.881 6.99997H229.881V63.5H230.881H231.881V6.99997H230.881ZM230.881 63.5V62.5H71.3809V63.5V64.5H230.881V63.5ZM71.3809 63.5H70.3809V154H71.3809H72.3809V63.5H71.3809ZM71.3809 154V155H198.381V154V153H71.3809V154ZM198.381 154H197.381V209H198.381H199.381V154H198.381ZM198.381 209V208H71.3809V209V210H198.381V209ZM71.3809 209H70.3809V357H71.3809H72.3809V209H71.3809ZM71.3809 357V356H1.38086V357V358H71.3809V357ZM198.615 357L197.676 356.658L197.187 358H198.615V357ZM326.115 6.99997V5.99997H325.415L325.176 6.6577L326.115 6.99997ZM405.615 6.99997L406.555 6.6577L406.315 5.99997H405.615V6.99997ZM533.115 357V358H534.544L534.055 356.658L533.115 357ZM459.115 357L458.17 357.327L458.403 358H459.115V357ZM365.615 86.5L366.56 86.1733L365.618 83.4463L364.671 86.1717L365.615 86.5ZM271.615 357V358H272.326L272.56 357.328L271.615 357ZM254.615 278.5L253.668 278.179L253.22 279.5H254.615V278.5ZM273.115 224V223H272.399L272.168 223.679L273.115 224ZM453.115 224L454.065 223.686L453.838 223H453.115V224ZM471.115 278.5V279.5H472.499L472.065 278.186L471.115 278.5ZM198.615 357L199.555 357.342L327.055 7.34225L326.115 6.99997L325.176 6.6577L197.676 356.658L198.615 357ZM326.115 6.99997V7.99997H405.615V6.99997V5.99997H326.115V6.99997ZM405.615 6.99997L404.676 7.34225L532.176 357.342L533.115 357L534.055 356.658L406.555 6.6577L405.615 6.99997ZM533.115 357V356H459.115V357V358H533.115V357ZM459.115 357L460.06 356.673L366.56 86.1733L365.615 86.5L364.67 86.8267L458.17 357.327L459.115 357ZM365.615 86.5L364.671 86.1717L270.671 356.672L271.615 357L272.56 357.328L366.56 86.8282L365.615 86.5ZM271.615 357V356H198.615V357V358H271.615V357ZM254.615 278.5L255.562 278.821L274.062 224.321L273.115 224L272.168 223.679L253.668 278.179L254.615 278.5ZM273.115 224V225H453.115V224V223H273.115V224ZM453.115 224L452.166 224.314L470.166 278.814L471.115 278.5L472.065 278.186L454.065 223.686L453.115 224ZM471.115 278.5V277.5H254.615V278.5V279.5H471.115V278.5ZM781.541 412.5L780.697 413.036L780.992 413.5H781.541V412.5ZM653.541 211V210H651.721L652.697 211.536L653.541 211ZM734.041 211L734.878 210.453L734.583 210H734.041V211ZM865.541 412.5V413.5H867.388L866.378 411.953L865.541 412.5ZM610.041 340L609.533 340.861L610.041 340ZM548.541 276.5L547.66 276.973L547.663 276.979L547.667 276.986L548.541 276.5ZM548.541 88L547.664 87.5189L547.662 87.5226L548.541 88ZM790.541 24L790.033 24.8614L790.038 24.8642L790.541 24ZM851.541 88L850.655 88.4644L850.659 88.4709L850.662 88.4773L851.541 88ZM851.541 276.5L850.66 276.027L850.658 276.031L851.541 276.5ZM790.541 340L790.038 339.136L790.033 339.139L790.541 340ZM754.541 285.5L755.074 286.346L754.541 285.5ZM790.041 245L790.942 245.433L790.945 245.427L790.041 245ZM790.041 119.5L789.137 119.927L789.14 119.933L790.041 119.5ZM754.541 78.5L755.074 77.6541L754.541 78.5ZM646.041 78.5L645.508 77.654L645.499 77.6594L646.041 78.5ZM610.541 119.5L609.643 119.06L609.64 119.067L610.541 119.5ZM610.541 245L609.637 245.427L609.641 245.437L609.647 245.447L610.541 245ZM646.041 285.5L645.499 286.341L645.508 286.346L646.041 285.5ZM781.541 412.5L782.385 411.964L654.385 210.464L653.541 211L652.697 211.536L780.697 413.036L781.541 412.5ZM653.541 211V212H734.041V211V210H653.541V211ZM734.041 211L733.204 211.547L864.704 413.047L865.541 412.5L866.378 411.953L734.878 210.453L734.041 211ZM865.541 412.5V411.5H781.541V412.5V413.5H865.541V412.5ZM700.041 363V362C666.197 362 636.376 354.37 610.549 339.139L610.041 340L609.533 340.861C635.706 356.297 665.885 364 700.041 364V363ZM610.041 340L610.549 339.139C584.706 323.898 564.331 302.863 549.415 276.014L548.541 276.5L547.667 276.986C562.751 304.137 583.376 325.435 609.533 340.861L610.041 340ZM548.541 276.5L549.422 276.027C534.844 248.86 527.541 217.527 527.541 182H526.541H525.541C525.541 217.807 532.904 249.474 547.66 276.973L548.541 276.5ZM526.541 182H527.541C527.541 146.473 534.845 115.309 549.42 88.4773L548.541 88L547.662 87.5226C532.904 114.691 525.541 146.194 525.541 182H526.541ZM548.541 88L549.418 88.4811C564.334 61.2999 584.709 40.1003 610.549 24.8614L610.041 24L609.533 23.1386C583.373 38.5664 562.748 60.0334 547.664 87.5189L548.541 88ZM610.041 24L610.549 24.8614C636.376 9.62984 666.197 2 700.041 2V1V0C665.885 0 635.706 7.70348 609.533 23.1386L610.041 24ZM700.041 1V2C734.221 2 764.207 9.63071 790.033 24.8614L790.541 24L791.049 23.1386C764.875 7.70261 734.528 0 700.041 0V1ZM790.541 24L790.038 24.8642C816.206 40.1016 836.408 61.2954 850.655 88.4644L851.541 88L852.427 87.5356C838.007 60.0379 817.542 38.5651 791.044 23.1358L790.541 24ZM851.541 88L850.662 88.4773C865.237 115.309 872.541 146.473 872.541 182H873.541H874.541C874.541 146.194 867.178 114.691 852.42 87.5226L851.541 88ZM873.541 182H872.541C872.541 217.527 865.238 248.86 850.66 276.027L851.541 276.5L852.422 276.973C867.178 249.474 874.541 217.807 874.541 182H873.541ZM851.541 276.5L850.658 276.031C836.411 302.867 816.21 323.897 790.038 339.136L790.541 340L791.044 340.864C817.539 325.437 838.004 304.133 852.424 276.969L851.541 276.5ZM790.541 340L790.033 339.139C764.207 354.369 734.221 362 700.041 362V363V364C734.528 364 764.875 356.297 791.049 340.861L790.541 340ZM700.041 300V301C721.199 301 739.557 296.128 755.074 286.346L754.541 285.5L754.008 284.654C738.858 294.205 720.883 299 700.041 299V300ZM754.541 285.5L755.074 286.346C770.577 276.573 782.533 262.925 790.942 245.433L790.041 245L789.14 244.567C780.883 261.741 769.172 275.094 754.008 284.654L754.541 285.5ZM790.041 245L790.945 245.427C799.355 227.598 803.541 206.446 803.541 182H802.541H801.541C801.541 206.221 797.393 227.069 789.137 244.573L790.041 245ZM802.541 182H803.541C803.541 157.555 799.355 136.566 790.942 119.067L790.041 119.5L789.14 119.933C797.393 137.1 801.541 157.778 801.541 182H802.541ZM790.041 119.5L790.945 119.073C782.537 101.248 770.581 87.4302 755.074 77.6541L754.541 78.5L754.008 79.3459C769.167 88.9031 780.878 102.418 789.137 119.927L790.041 119.5ZM754.541 78.5L755.074 77.6541C739.557 67.8716 721.199 63 700.041 63V64V65C720.883 65 738.858 69.795 754.008 79.3459L754.541 78.5ZM700.041 64V63C679.213 63 661.022 67.8732 645.508 77.6541L646.041 78.5L646.574 79.3459C661.727 69.7934 679.536 65 700.041 65V64ZM646.041 78.5L645.499 77.6594C630.331 87.4345 618.382 101.247 609.643 119.06L610.541 119.5L611.439 119.94C620.034 102.42 631.751 88.8988 646.583 79.3406L646.041 78.5ZM610.541 119.5L609.64 119.067C601.227 136.566 597.041 157.555 597.041 182H598.041H599.041C599.041 157.778 603.189 137.1 611.442 119.933L610.541 119.5ZM598.041 182H597.041C597.041 206.446 601.227 227.598 609.637 245.427L610.541 245L611.445 244.573C603.189 227.069 599.041 206.221 599.041 182H598.041ZM610.541 245L609.647 245.447C618.386 262.927 630.336 276.568 645.499 286.341L646.041 285.5L646.583 284.659C631.746 275.098 620.029 261.74 611.435 244.553L610.541 245ZM646.041 285.5L645.508 286.346C661.022 296.127 679.213 301 700.041 301V300V299C679.536 299 661.727 294.207 646.574 284.654L646.041 285.5Z" fill="url(#paint1_linear_615_568)" mask="url(#path-1-outside-1_615_568)"/>
<defs>
<linearGradient id="paint0_linear_615_568" x1="-33" y1="186" x2="897" y2="186" gradientUnits="userSpaceOnUse">
<stop offset="0.427885" stop-color="#004F3B"/>
<stop offset="0.870192" stop-color="#00B587"/>
</linearGradient>
<linearGradient id="paint1_linear_615_568" x1="-33" y1="186" x2="897" y2="186" gradientUnits="userSpaceOnUse">
<stop offset="0.350962" stop-color="#A4F4CF"/>
<stop offset="0.697115" stop-color="#009689"/>
</linearGradient>
</defs>
</svg>
