<svg width="123" height="123" viewBox="0 0 123 123" fill="none" xmlns="http://www.w3.org/2000/svg">
<rect width="123" height="123" fill="#18181B"/>
<path d="M91.1276 75L90.5231 68.175H91.7809L92.0831 73.6447L94.5304 68.175H95.8271L96.2951 73.635L98.5376 68.175H99.8051L96.7339 75H95.3494L94.8619 69.8422L92.5024 75H91.1276ZM98.849 75L100.058 68.175H104.289L104.124 69.111H101.062L100.711 71.0902H103.48L103.324 71.997H100.555L100.185 74.064H103.246L103.08 75H98.849ZM103.622 75L104.831 68.175H107.513C107.948 68.175 108.306 68.24 108.585 68.37C108.871 68.5 109.082 68.682 109.219 68.916C109.355 69.1435 109.414 69.4132 109.394 69.7252C109.381 70.0697 109.287 70.3752 109.112 70.6417C108.943 70.9082 108.715 71.1195 108.429 71.2755C108.15 71.4315 107.834 71.5257 107.483 71.5582L107.639 71.451C107.919 71.4575 108.159 71.529 108.361 71.6655C108.569 71.7955 108.728 71.9677 108.839 72.1822C108.949 72.3967 108.998 72.6405 108.985 72.9135C108.972 73.3295 108.848 73.6935 108.614 74.0055C108.387 74.3175 108.081 74.5612 107.698 74.7367C107.314 74.9122 106.882 75 106.401 75H103.622ZM104.968 74.0542H106.391C106.677 74.0542 106.924 74.0055 107.132 73.908C107.34 73.8105 107.503 73.6707 107.62 73.4887C107.743 73.3002 107.808 73.0857 107.815 72.8452C107.834 72.5657 107.747 72.348 107.552 72.192C107.363 72.0295 107.093 71.9482 106.742 71.9482H105.338L104.968 74.0542ZM105.494 71.0707H106.83C107.227 71.0707 107.545 70.97 107.786 70.7685C108.026 70.5605 108.153 70.2842 108.166 69.9397C108.179 69.7577 108.15 69.605 108.078 69.4815C108.007 69.358 107.893 69.2637 107.737 69.1987C107.587 69.1337 107.396 69.1012 107.162 69.1012L105.836 69.111L105.494 71.0707Z" fill="#E4E4E7"/>
<path d="M23.3416 65L26.5966 46.625H30.1404L26.8854 65H23.3416ZM11.7654 65L14.9941 46.625H18.5379L15.3091 65H11.7654ZM16.2016 57.02L16.7266 54.2112H25.8354L25.3366 57.02H16.2016ZM29.4544 65L32.6831 46.625H44.3119L43.8131 49.4337H35.7281L34.8881 54.3162H42.1856L41.6869 57.0462H34.3894L33.4969 62.1912H41.5556L41.0569 65H29.4544ZM43.2726 65L46.5013 46.625H53.3001C54.6476 46.625 55.7501 46.8612 56.6076 47.3337C57.4651 47.7887 58.0863 48.4012 58.4713 49.1712C58.8563 49.9237 59.0313 50.7637 58.9963 51.6912C58.9438 52.8987 58.5938 53.9662 57.9463 54.8937C57.3163 55.8037 56.4326 56.5212 55.2951 57.0462C54.1751 57.5537 52.8626 57.8075 51.3576 57.8075H48.0763L46.8163 65H43.2726ZM52.9588 65L50.5963 56.915H54.2976L56.8438 65H52.9588ZM48.5488 55.235H51.6463C52.7488 55.235 53.6326 54.9462 54.2976 54.3687C54.9626 53.7912 55.3126 53.0037 55.3476 52.0062C55.3826 51.2887 55.1813 50.7112 54.7438 50.2737C54.3238 49.8187 53.6238 49.5912 52.6438 49.5912H49.5463L48.5488 55.235ZM58.2314 65L58.7301 62.27L69.4139 49.565H61.0139L61.5389 46.625H74.0339L73.5614 49.355L62.7989 62.06H71.3564L70.8314 65H58.2314ZM81.1601 65.315C79.5676 65.315 78.1764 64.9562 76.9864 64.2387C75.7964 63.5212 74.8864 62.5412 74.2564 61.2987C73.6264 60.0387 73.3551 58.595 73.4426 56.9675C73.4951 55.48 73.8101 54.0887 74.3876 52.7937C74.9826 51.4987 75.7701 50.37 76.7501 49.4075C77.7301 48.4275 78.8676 47.6662 80.1626 47.1237C81.4576 46.5812 82.8401 46.31 84.3101 46.31C85.9026 46.31 87.2939 46.6687 88.4839 47.3862C89.6739 48.1037 90.5751 49.0925 91.1876 50.3525C91.8176 51.595 92.0976 53.0212 92.0276 54.6312C91.9576 56.1362 91.6251 57.5362 91.0301 58.8312C90.4526 60.1262 89.6739 61.2637 88.6939 62.2437C87.7139 63.2062 86.5764 63.9587 85.2814 64.5012C84.0039 65.0437 82.6301 65.315 81.1601 65.315ZM81.6326 62.1387C82.5426 62.1387 83.3914 61.955 84.1789 61.5875C84.9839 61.22 85.6926 60.7125 86.3051 60.065C86.9176 59.4 87.3989 58.63 87.7489 57.755C88.1164 56.8625 88.3264 55.8912 88.3789 54.8412C88.4314 53.7562 88.2914 52.82 87.9589 52.0325C87.6264 51.2275 87.1101 50.6062 86.4101 50.1688C85.7276 49.7312 84.8701 49.5125 83.8376 49.5125C82.9276 49.5125 82.0701 49.6962 81.2651 50.0637C80.4776 50.4137 79.7776 50.9212 79.1651 51.5862C78.5526 52.2337 78.0626 52.995 77.6951 53.87C77.3276 54.745 77.1264 55.7075 77.0914 56.7575C77.0214 57.8425 77.1614 58.7875 77.5114 59.5925C77.8614 60.3975 78.3864 61.0275 79.0864 61.4825C79.7864 61.92 80.6351 62.1387 81.6326 62.1387ZM100.348 65.315C98.7906 65.315 97.4606 64.965 96.3581 64.265C95.2731 63.565 94.4506 62.6025 93.8906 61.3775C93.3481 60.1525 93.1206 58.7612 93.2081 57.2037C93.2606 55.5937 93.5668 54.1237 94.1268 52.7937C94.7043 51.4637 95.4831 50.3175 96.4631 49.355C97.4431 48.3925 98.5893 47.6487 99.9018 47.1237C101.214 46.5812 102.649 46.31 104.207 46.31C106.377 46.31 108.092 46.8262 109.352 47.8587C110.629 48.8912 111.312 50.3262 111.399 52.1637H107.436C107.313 51.3587 106.937 50.7287 106.307 50.2737C105.677 49.8012 104.802 49.565 103.682 49.565C102.369 49.565 101.206 49.88 100.191 50.51C99.1931 51.1225 98.3968 51.9887 97.8018 53.1087C97.2243 54.2112 96.9093 55.5062 96.8568 56.9937C96.7868 58.0612 96.9181 58.9887 97.2506 59.7762C97.5831 60.5462 98.0906 61.1412 98.7731 61.5612C99.4556 61.9637 100.287 62.165 101.267 62.165C102.334 62.165 103.262 61.9725 104.049 61.5875C104.854 61.185 105.519 60.6337 106.044 59.9337C106.569 59.2162 106.963 58.4025 107.226 57.4925H102.711L103.183 54.8412H111.268L109.457 65H106.228L106.333 62.6637C105.861 63.2412 105.327 63.7312 104.732 64.1338C104.154 64.5187 103.507 64.8075 102.789 65C102.072 65.21 101.258 65.315 100.348 65.315Z" fill="white"/>
<path d="M86.2652 72.0152C86.4116 71.8687 86.4116 71.6313 86.2652 71.4848L83.8787 69.0983C83.7322 68.9519 83.4948 68.9519 83.3483 69.0983C83.2019 69.2448 83.2019 69.4822 83.3483 69.6287L85.4697 71.75L83.3483 73.8713C83.2019 74.0178 83.2019 74.2552 83.3483 74.4017C83.4948 74.5481 83.7322 74.5481 83.8787 74.4017L86.2652 72.0152ZM11.75 71.75V72.125L86 72.125V71.75V71.375L11.75 71.375V71.75Z" fill="#5EE9B5"/>
</svg>
