<svg width="123" height="123" viewBox="0 0 123 123" fill="none" xmlns="http://www.w3.org/2000/svg">
<g clip-path="url(#clip0_722_273)">
<rect width="123" height="123" fill="#18181B"/>
<path d="M61.0875 90L56.7475 41H65.7775L67.9475 80.27L85.5175 41H94.8275L98.1875 80.2L114.287 41H123.387L101.337 90H91.3975L87.8975 52.97L70.9575 90H61.0875Z" fill="#E4E4E7"/>
<path d="M36.6346 90L45.3147 41H54.7647L46.0846 90H36.6346ZM5.76465 90L14.3746 41H23.8246L15.2146 90H5.76465ZM17.5946 68.72L18.9946 61.23H43.2847L41.9547 68.72H17.5946Z" fill="white"/>
<path d="M114.354 95.3536C114.549 95.1583 114.549 94.8417 114.354 94.6464L111.172 91.4645C110.976 91.2692 110.66 91.2692 110.464 91.4645C110.269 91.6597 110.269 91.9763 110.464 92.1716L113.293 95L110.464 97.8284C110.269 98.0237 110.269 98.3403 110.464 98.5355C110.66 98.7308 110.976 98.7308 111.172 98.5355L114.354 95.3536ZM6 95V95.5H114V95V94.5H6V95Z" fill="#5EE9B5"/>
</g>
<defs>
<clipPath id="clip0_722_273">
<rect width="123" height="123" fill="white"/>
</clipPath>
</defs>
</svg>
