<svg width="123" height="123" viewBox="0 0 123 123" fill="none" xmlns="http://www.w3.org/2000/svg">
<g clip-path="url(#clip0_722_273)">
<rect width="123" height="123" fill="#18181B"/>
<path d="M76.4457 92L73.4697 58.4H79.6617L81.1497 85.328L93.1977 58.4H99.5817L101.886 85.28L112.926 58.4H119.166L104.046 92H97.2297L94.8297 66.608L83.2137 92H76.4457Z" fill="#E4E4E7"/>
<path d="M51.5316 92L63.9316 22H77.4316L65.0316 92H51.5316ZM7.43164 92L19.7316 22H33.2316L20.9316 92H7.43164ZM24.3316 61.6L26.3316 50.9H61.0316L59.1316 61.6H24.3316Z" fill="white"/>
<path d="M115.265 95.2652C115.412 95.1187 115.412 94.8813 115.265 94.7348L112.879 92.3483C112.732 92.2019 112.495 92.2019 112.348 92.3483C112.202 92.4948 112.202 92.7322 112.348 92.8787L114.47 95L112.348 97.1213C112.202 97.2678 112.202 97.5052 112.348 97.6517C112.495 97.7981 112.732 97.7981 112.879 97.6517L115.265 95.2652ZM7 95V95.375H115V95V94.625H7V95Z" fill="#5EE9B5"/>
</g>
<defs>
<clipPath id="clip0_722_273">
<rect width="123" height="123" fill="white"/>
</clipPath>
</defs>
</svg>
