<svg width="30" height="30" viewBox="0 0 30 30" fill="none" xmlns="http://www.w3.org/2000/svg">
<path d="M6.25 23.125C6.25 23.7055 6.25 23.9958 6.28208 24.2395C6.50362 25.9222 7.82778 27.2464 9.51053 27.4679C9.75421 27.5 10.0445 27.5 10.625 27.5H20.25C22.3502 27.5 23.4003 27.5 24.2025 27.0913C24.9081 26.7317 25.4817 26.1581 25.8413 25.4525C26.25 24.6503 26.25 23.6002 26.25 21.5V12.4853C26.25 11.5681 26.25 11.1095 26.1464 10.6779C26.0545 10.2952 25.903 9.92945 25.6974 9.59393C25.4655 9.2155 25.1412 8.8912 24.4926 8.24264L20.5074 4.25736C19.8588 3.60879 19.5345 3.28451 19.1561 3.0526C18.8205 2.84699 18.4548 2.69548 18.0721 2.60361C17.6405 2.5 17.1819 2.5 16.2647 2.5H10.625C10.0445 2.5 9.75421 2.5 9.51053 2.53208C7.82778 2.75362 6.50362 4.07778 6.28208 5.76053C6.25 6.00421 6.25 6.29447 6.25 6.875M11.25 18.125L14.375 15L11.25 11.875M6.25 11.875L3.125 15L6.25 18.125" stroke="url(#paint0_linear_662_216)" stroke-width="2" stroke-linecap="round" stroke-linejoin="round"/>
<defs>
<linearGradient id="paint0_linear_662_216" x1="14.6875" y1="2.5" x2="14.6875" y2="27.5" gradientUnits="userSpaceOnUse">
<stop stop-color="#FEE685"/>
<stop offset="1" stop-color="#D08700"/>
</linearGradient>
</defs>
</svg>
