<svg width="463" height="49" viewBox="0 0 463 49" fill="none" xmlns="http://www.w3.org/2000/svg">
<path d="M358.781 20.9781C360.21 15.2614 363.783 12.4031 369.5 12.4031C378.075 12.4031 379.147 18.8343 383.434 19.9062C386.293 20.6208 388.794 19.5489 390.938 16.6906C389.508 22.4072 385.935 25.2656 380.219 25.2656C371.644 25.2656 370.572 18.8343 366.284 17.7625C363.426 17.0479 360.925 18.1197 358.781 20.9781ZM348.062 33.8406C349.492 28.1239 353.065 25.2656 358.781 25.2656C367.356 25.2656 368.428 31.6968 372.716 32.7687C375.574 33.4833 378.075 32.4114 380.219 29.5531C378.79 35.2697 375.217 38.1281 369.5 38.1281C360.925 38.1281 359.853 31.6968 355.566 30.625C352.707 29.9104 350.206 30.9822 348.062 33.8406Z" fill="#44A8B3"/>
<path d="M285.188 42.875L282.125 4.59375H318.875L315.812 42.875L300.5 47.4688L285.188 42.875Z" fill="#1172B8"/>
<path d="M315.812 7.65625H300.5V45.1719L312.75 41.3438L315.812 7.65625Z" fill="#33AADD"/>
<path d="M305.859 26.7969H290.547L289.781 21.4375L302.031 17.6094H289.781L289.016 13.0156H312.75L311.984 18.375L302.031 22.2031H311.219L309.688 36.75L300.5 39.8125L291.312 36.75L290.547 29.0938H295.141L295.906 32.9219L300.5 34.4531L305.094 32.9219L305.859 26.7969Z" fill="white"/>
<path fill-rule="evenodd" clip-rule="evenodd" d="M438.5 24.5C438.5 21.1173 441.242 18.375 444.625 18.375C448.008 18.375 450.75 21.1173 450.75 24.5C450.75 27.8827 448.008 30.625 444.625 30.625C441.242 30.625 438.5 27.8827 438.5 24.5Z" fill="#1ABCFE"/>
<path fill-rule="evenodd" clip-rule="evenodd" d="M426.25 36.75C426.25 33.3673 428.992 30.625 432.375 30.625H438.5V36.75C438.5 40.1327 435.758 42.875 432.375 42.875C428.992 42.875 426.25 40.1327 426.25 36.75Z" fill="#0ACF83"/>
<path fill-rule="evenodd" clip-rule="evenodd" d="M438.5 6.125V18.375H444.625C448.008 18.375 450.75 15.6327 450.75 12.25C450.75 8.86725 448.008 6.125 444.625 6.125H438.5Z" fill="#FF7262"/>
<path fill-rule="evenodd" clip-rule="evenodd" d="M426.25 12.25C426.25 15.6327 428.992 18.375 432.375 18.375H438.5V6.125H432.375C428.992 6.125 426.25 8.86725 426.25 12.25Z" fill="#F24E1E"/>
<path fill-rule="evenodd" clip-rule="evenodd" d="M426.25 24.5C426.25 27.8827 428.992 30.625 432.375 30.625H438.5V18.375H432.375C428.992 18.375 426.25 21.1173 426.25 24.5Z" fill="#A259FF"/>
<path d="M97.6021 24.4631C97.6021 22.2667 95.7657 20.4858 93.5 20.4858C91.2347 20.4858 89.3979 22.2667 89.3979 24.4631C89.3979 26.6598 91.2347 28.4405 93.5 28.4405C95.7657 28.4405 97.6021 26.6598 97.6021 24.4631Z" fill="#53C1DE"/>
<path fill-rule="evenodd" clip-rule="evenodd" d="M106.822 17.0791C107.689 13.6661 108.778 7.33695 104.939 5.19118C101.118 3.05477 96.1466 7.14853 93.5213 9.60581C90.9036 7.17302 85.7921 3.09675 81.9569 5.24934C78.1377 7.39292 79.3155 13.6171 80.2009 17.0515C76.6383 18.0326 70.5312 20.1457 70.5312 24.4631C70.5312 28.7682 76.632 31.0672 80.1735 32.0474C79.2848 35.5008 78.166 41.6361 81.99 43.7749C85.8396 45.9271 90.9352 41.9478 93.5848 39.4637C96.227 41.9354 101.151 45.9407 104.972 43.7959C108.806 41.6443 107.807 35.4 106.922 31.9457C110.355 30.9634 116.469 28.7145 116.469 24.4631C116.469 20.1872 110.329 18.057 106.822 17.0791ZM106.387 30.1151C105.806 28.3306 105.021 26.4329 104.061 24.4726C104.977 22.5585 105.732 20.6853 106.297 18.9123C108.867 19.6349 114.506 21.2864 114.506 24.4631C114.506 27.6697 109.095 29.3368 106.387 30.1151ZM103.989 42.1492C101.138 43.7493 96.9026 39.9191 94.9513 38.0989C96.2458 36.7261 97.5394 35.1302 98.802 33.3581C101.023 33.1672 103.121 32.8548 105.024 32.4284C105.647 34.8718 106.853 40.5418 103.989 42.1492ZM82.9705 42.1264C80.1191 40.5322 81.4224 35.0574 82.0762 32.5135C83.9578 32.9171 86.0407 33.2075 88.2668 33.3825C89.5376 35.1165 90.8687 36.7103 92.2101 38.1062C90.5528 39.6606 85.8353 43.7279 82.9705 42.1264ZM72.4935 24.4631C72.4935 21.2446 78.0988 19.6051 80.7279 18.8843C81.3028 20.6971 82.0569 22.5927 82.9669 24.5095C82.0451 26.4548 81.2803 28.3803 80.7001 30.2146C78.1932 29.5188 72.4935 27.6836 72.4935 24.4631ZM82.94 6.89604C85.8032 5.28918 90.2456 9.20255 92.1462 10.9639C90.8117 12.3534 89.4929 13.9353 88.233 15.6593C86.0725 15.8535 84.0043 16.1653 82.103 16.583C81.3897 13.813 80.08 8.50118 82.94 6.89604ZM100.206 17.7274C101.672 17.9067 103.076 18.1453 104.394 18.4372C103.999 19.6674 103.505 20.9538 102.924 22.2725C102.082 20.7229 101.178 19.2043 100.206 17.7274ZM93.5219 12.3237C94.427 13.2744 95.3335 14.336 96.2253 15.4878C94.4165 15.4048 92.6047 15.4045 90.7958 15.4866C91.6884 14.3455 92.6027 13.2854 93.5219 12.3237ZM84.0928 22.2711C83.5213 20.957 83.0323 19.6649 82.6331 18.4171C83.9437 18.1328 85.3415 17.9003 86.7977 17.7239C85.8232 19.1976 84.9206 20.7155 84.0928 22.2711ZM86.8395 31.3381C85.3352 31.1753 83.9163 30.9547 82.606 30.6781C83.0116 29.4084 83.5113 28.0885 84.095 26.746C84.9342 28.3179 85.8506 29.8505 86.8395 31.3381ZM93.5763 36.737C92.6462 35.7639 91.7184 34.6876 90.8123 33.5299C92.6315 33.5991 94.4541 33.5993 96.2731 33.5206C95.3785 34.6993 94.4753 35.7772 93.5763 36.737ZM102.943 26.6777C103.557 28.0347 104.074 29.3475 104.485 30.5957C103.153 30.8905 101.715 31.1279 100.2 31.3041C101.179 29.7992 102.098 28.2571 102.943 26.6777ZM97.7068 31.5347C94.9242 31.7275 92.1243 31.7254 89.3408 31.5505C87.7592 29.3104 86.3512 26.9546 85.1359 24.5089C86.3454 22.0682 87.7431 19.717 89.3172 17.4804C92.1027 17.2763 94.9054 17.2757 97.6909 17.4817C99.2515 19.7181 100.647 22.0632 101.885 24.4818C100.662 26.9212 99.2567 29.2772 97.7068 31.5347ZM103.959 6.83948C106.823 8.44108 105.548 14.1292 104.922 16.6027C103.017 16.1763 100.947 15.859 98.7802 15.6618C97.5178 13.9191 96.21 12.3345 94.8971 10.963C96.822 9.16363 101.123 5.25355 103.959 6.83948Z" fill="#53C1DE"/>
<path d="M216.188 42.875L213.125 4.59375H249.875L246.812 42.875L231.5 47.4688L216.188 42.875Z" fill="#E44D26"/>
<path d="M246.812 7.65625H231.5V45.1719L243.75 41.3438L246.812 7.65625Z" fill="#F16529"/>
<path d="M221.547 26.7969L220.016 12.25H243.75L242.984 16.8438H224.609L225.375 22.2031H242.219L240.688 36.75L231.5 39.8125L222.312 36.75L221.547 29.0938H226.141L226.906 32.9219L231.5 34.4531L236.094 32.9219L236.859 26.7969H221.547Z" fill="white"/>
<mask id="mask0_419_122" style="mask-type:luminance" maskUnits="userSpaceOnUse" x="0" y="0" width="49" height="49">
<path d="M49 0H0V48.5215H49V0Z" fill="white"/>
</mask>
<g mask="url(#mask0_419_122)">
<path d="M22.8955 0.0130592C22.7901 0.0225453 22.4547 0.0557467 22.1529 0.079462C15.1933 0.700802 8.67439 4.41936 4.54555 10.1347C2.24643 13.3126 0.775954 16.9173 0.220333 20.7355C0.0239492 22.0684 0 22.462 0 24.269C0 26.0763 0.0239492 26.4699 0.220333 27.8026C1.55191 36.9141 8.09962 44.5694 16.98 47.4057C18.5702 47.9131 20.2466 48.2595 22.1529 48.4681C22.8955 48.5488 26.1045 48.5488 26.8471 48.4681C30.1377 48.1076 32.9253 47.3014 35.6747 45.9116C36.0963 45.6981 36.1775 45.6413 36.1201 45.5938C36.0818 45.5653 34.2857 43.1797 32.1301 40.2959L28.2122 35.0548L23.3026 27.8596C20.601 23.9039 18.3786 20.6691 18.3594 20.6691C18.3403 20.6643 18.3211 23.8612 18.3115 27.7646C18.2972 34.5995 18.2924 34.8746 18.2062 35.0357C18.0816 35.2682 17.9858 35.3631 17.7847 35.4674C17.6314 35.5434 17.4973 35.5576 16.774 35.5576H15.9454L15.725 35.4201C15.5813 35.3299 15.476 35.2112 15.4041 35.0738L15.3035 34.8603L15.3131 25.3505L15.3275 15.8359L15.476 15.6509C15.5526 15.5513 15.7154 15.4233 15.8304 15.3616C16.0268 15.2667 16.1034 15.2573 16.9321 15.2573C17.9092 15.2573 18.072 15.2952 18.3259 15.5703C18.3977 15.6462 21.0561 19.6114 24.2366 24.3877C27.4169 29.1638 31.7661 35.6855 33.9025 38.8871L37.7823 44.7069L37.9787 44.5789C39.7174 43.4595 41.5567 41.8658 43.0126 40.2057C46.1117 36.6816 48.109 32.3845 48.7797 27.8026C48.9761 26.4699 49 26.0763 49 24.269C49 22.462 48.9761 22.0684 48.7797 20.7355C47.4481 11.6241 40.9003 3.96877 32.0201 1.13242C30.4537 0.629657 28.7869 0.283414 26.919 0.074719C26.459 0.0272885 23.293 -0.0248853 22.8955 0.0130592ZM32.9253 14.6881C33.1552 14.8019 33.3421 15.0201 33.409 15.2478C33.4474 15.3711 33.457 18.0082 33.4474 23.9512L33.4331 32.4793L31.9147 30.1741L30.3914 27.8691V21.6699C30.3914 17.662 30.4106 15.409 30.4394 15.2999C30.516 15.0343 30.6836 14.8256 30.9135 14.7023C31.1099 14.6027 31.1818 14.5932 31.9339 14.5932C32.6428 14.5932 32.7673 14.6027 32.9253 14.6881Z" fill="#F4F4F5"/>
</g>
<path d="M138 0H187V48.5215H138V0Z" fill="#F7DF1E"/>
<path d="M150.884 40.548L154.634 38.3009C155.357 39.571 156.015 40.6456 157.594 40.6456C159.107 40.6456 160.061 40.0595 160.061 37.7798V22.276H164.665V37.8442C164.665 42.567 161.87 44.7167 157.791 44.7167C154.107 44.7167 151.969 42.8275 150.884 40.5477" fill="black"/>
<path d="M167.167 40.0595L170.916 37.9099C171.903 39.506 173.186 40.6784 175.455 40.6784C177.363 40.6784 178.58 39.7338 178.58 38.431C178.58 36.8676 177.33 36.3138 175.225 35.4021L174.074 34.9132C170.752 33.513 168.548 31.7542 168.548 28.0411C168.548 24.6211 171.179 22.0154 175.291 22.0154C178.218 22.0154 180.323 23.0252 181.836 25.6634L178.251 27.9432C177.461 26.5428 176.606 25.9892 175.291 25.9892C173.942 25.9892 173.087 26.836 173.087 27.9432C173.087 29.3112 173.942 29.8651 175.915 30.712L177.067 31.2005C180.981 32.8617 183.185 34.5552 183.185 38.3658C183.185 42.47 179.928 44.7171 175.554 44.7171C171.278 44.7171 168.515 42.6979 167.167 40.0595Z" fill="black"/>
</svg>
