<svg width="377" height="49" viewBox="0 0 377 49" fill="none" xmlns="http://www.w3.org/2000/svg">
<path d="M259.781 20.9781C261.21 15.2615 264.783 12.4031 270.5 12.4031C279.075 12.4031 280.147 18.8344 284.434 19.9063C287.293 20.6208 289.794 19.549 291.938 16.6906C290.508 22.4073 286.935 25.2656 281.219 25.2656C272.644 25.2656 271.572 18.8344 267.284 17.7625C264.426 17.0479 261.925 18.1198 259.781 20.9781ZM249.062 33.8406C250.492 28.124 254.065 25.2656 259.781 25.2656C268.356 25.2656 269.428 31.6969 273.716 32.7688C276.574 33.4833 279.075 32.4115 281.219 29.5531C279.79 35.2698 276.217 38.1281 270.5 38.1281C261.925 38.1281 260.853 31.6969 256.566 30.625C253.707 29.9104 251.206 30.9823 249.062 33.8406Z" fill="#44A8B3"/>
<path fill-rule="evenodd" clip-rule="evenodd" d="M352.5 24.5C352.5 21.1173 355.242 18.375 358.625 18.375C362.008 18.375 364.75 21.1173 364.75 24.5C364.75 27.8827 362.008 30.625 358.625 30.625C355.242 30.625 352.5 27.8827 352.5 24.5Z" fill="#1ABCFE"/>
<path fill-rule="evenodd" clip-rule="evenodd" d="M340.25 36.75C340.25 33.3673 342.992 30.625 346.375 30.625H352.5V36.75C352.5 40.1327 349.758 42.875 346.375 42.875C342.992 42.875 340.25 40.1327 340.25 36.75Z" fill="#0ACF83"/>
<path fill-rule="evenodd" clip-rule="evenodd" d="M352.5 6.125V18.375H358.625C362.008 18.375 364.75 15.6327 364.75 12.25C364.75 8.86725 362.008 6.125 358.625 6.125H352.5Z" fill="#FF7262"/>
<path fill-rule="evenodd" clip-rule="evenodd" d="M340.25 12.25C340.25 15.6327 342.992 18.375 346.375 18.375H352.5V6.125H346.375C342.992 6.125 340.25 8.86725 340.25 12.25Z" fill="#F24E1E"/>
<path fill-rule="evenodd" clip-rule="evenodd" d="M340.25 24.5C340.25 27.8827 342.992 30.625 346.375 30.625H352.5V18.375H346.375C342.992 18.375 340.25 21.1173 340.25 24.5Z" fill="#A259FF"/>
<path d="M110.602 24.4631C110.602 22.2667 108.765 20.4858 106.5 20.4858C104.234 20.4858 102.397 22.2667 102.397 24.4631C102.397 26.6598 104.234 28.4405 106.5 28.4405C108.765 28.4405 110.602 26.6598 110.602 24.4631Z" fill="#53C1DE"/>
<path fill-rule="evenodd" clip-rule="evenodd" d="M119.822 17.0791C120.689 13.6661 121.778 7.33695 117.939 5.19118C114.118 3.05477 109.147 7.14853 106.521 9.6058C103.904 7.17302 98.7921 3.09675 94.9569 5.24934C91.1377 7.39292 92.3155 13.6171 93.2009 17.0515C89.6383 18.0326 83.5312 20.1457 83.5312 24.4631C83.5312 28.7682 89.632 31.0672 93.1735 32.0474C92.2848 35.5008 91.166 41.6361 94.99 43.7749C98.8396 45.9271 103.935 41.9478 106.585 39.4637C109.227 41.9354 114.151 45.9407 117.972 43.7959C121.806 41.6443 120.807 35.4 119.922 31.9457C123.355 30.9634 129.469 28.7145 129.469 24.4631C129.469 20.1872 123.329 18.057 119.822 17.0791ZM119.387 30.1151C118.806 28.3306 118.021 26.4329 117.061 24.4726C117.977 22.5585 118.732 20.6853 119.297 18.9123C121.867 19.6349 127.506 21.2864 127.506 24.4631C127.506 27.6697 122.095 29.3368 119.387 30.1151ZM116.989 42.1492C114.138 43.7493 109.903 39.9191 107.951 38.0989C109.246 36.7261 110.539 35.1302 111.802 33.3581C114.023 33.1672 116.121 32.8548 118.024 32.4284C118.647 34.8718 119.853 40.5418 116.989 42.1492ZM95.9705 42.1264C93.1191 40.5322 94.4224 35.0574 95.0762 32.5135C96.9578 32.9171 99.0407 33.2075 101.267 33.3825C102.538 35.1165 103.869 36.7103 105.21 38.1062C103.553 39.6606 98.8353 43.7279 95.9705 42.1264ZM85.4935 24.4631C85.4935 21.2446 91.0988 19.6051 93.7279 18.8843C94.3028 20.6971 95.0569 22.5927 95.9669 24.5095C95.0451 26.4548 94.2803 28.3803 93.7001 30.2146C91.1932 29.5188 85.4935 27.6836 85.4935 24.4631ZM95.94 6.89604C98.8032 5.28918 103.246 9.20255 105.146 10.9639C103.812 12.3534 102.493 13.9353 101.233 15.6593C99.0725 15.8535 97.0043 16.1653 95.103 16.583C94.3897 13.813 93.08 8.50118 95.94 6.89604ZM113.206 17.7274C114.672 17.9067 116.076 18.1453 117.394 18.4372C116.999 19.6674 116.505 20.9538 115.924 22.2725C115.082 20.7229 114.178 19.2043 113.206 17.7274ZM106.522 12.3237C107.427 13.2744 108.334 14.336 109.225 15.4878C107.416 15.4048 105.605 15.4045 103.796 15.4866C104.688 14.3455 105.603 13.2854 106.522 12.3237ZM97.0928 22.2711C96.5213 20.957 96.0323 19.6649 95.6331 18.4171C96.9437 18.1328 98.3415 17.9003 99.7977 17.7239C98.8232 19.1976 97.9206 20.7155 97.0928 22.2711ZM99.8395 31.3381C98.3352 31.1753 96.9163 30.9547 95.606 30.6781C96.0116 29.4084 96.5113 28.0885 97.095 26.746C97.9342 28.3179 98.8506 29.8505 99.8395 31.3381ZM106.576 36.737C105.646 35.7639 104.718 34.6876 103.812 33.5299C105.631 33.5991 107.454 33.5993 109.273 33.5206C108.379 34.6993 107.475 35.7772 106.576 36.737ZM115.943 26.6777C116.557 28.0347 117.074 29.3475 117.485 30.5958C116.153 30.8905 114.715 31.1279 113.2 31.3041C114.179 29.7992 115.098 28.2571 115.943 26.6777ZM110.707 31.5347C107.924 31.7275 105.124 31.7254 102.341 31.5505C100.759 29.3104 99.3512 26.9546 98.1359 24.5089C99.3454 22.0682 100.743 19.717 102.317 17.4804C105.103 17.2763 107.905 17.2757 110.691 17.4817C112.252 19.7181 113.647 22.0632 114.885 24.4818C113.662 26.9212 112.257 29.2772 110.707 31.5347ZM116.959 6.83948C119.823 8.44108 118.548 14.1292 117.922 16.6027C116.017 16.1763 113.947 15.859 111.78 15.6618C110.518 13.9191 109.21 12.3345 107.897 10.963C109.822 9.16363 114.123 5.25355 116.959 6.83948Z" fill="#53C1DE"/>
<mask id="mask0_712_191" style="mask-type:luminance" maskUnits="userSpaceOnUse" x="0" y="0" width="49" height="49">
<path d="M49 0H0V48.5215H49V0Z" fill="white"/>
</mask>
<g mask="url(#mask0_712_191)">
<path d="M22.8955 0.0130592C22.7901 0.0225453 22.4547 0.0557467 22.1529 0.079462C15.1933 0.700802 8.67439 4.41936 4.54555 10.1347C2.24643 13.3126 0.775954 16.9173 0.220333 20.7355C0.0239492 22.0684 0 22.462 0 24.269C0 26.0763 0.0239492 26.4699 0.220333 27.8026C1.55191 36.9141 8.09962 44.5694 16.98 47.4057C18.5702 47.9131 20.2466 48.2595 22.1529 48.4681C22.8955 48.5488 26.1045 48.5488 26.8471 48.4681C30.1377 48.1076 32.9254 47.3014 35.6747 45.9116C36.0963 45.6981 36.1775 45.6413 36.1201 45.5938C36.0818 45.5653 34.2857 43.1797 32.1301 40.2959L28.2122 35.0548L23.3026 27.8596C20.601 23.9039 18.3786 20.6691 18.3594 20.6691C18.3403 20.6643 18.3211 23.8612 18.3115 27.7646C18.2972 34.5995 18.2924 34.8746 18.2062 35.0357C18.0816 35.2682 17.9858 35.3631 17.7847 35.4674C17.6314 35.5434 17.4973 35.5576 16.774 35.5576H15.9454L15.725 35.4201C15.5813 35.3299 15.476 35.2112 15.4041 35.0738L15.3035 34.8603L15.3131 25.3505L15.3275 15.8359L15.476 15.6509C15.5526 15.5513 15.7154 15.4233 15.8304 15.3616C16.0268 15.2667 16.1034 15.2573 16.9321 15.2573C17.9092 15.2573 18.072 15.2952 18.3259 15.5703C18.3977 15.6462 21.0561 19.6114 24.2366 24.3877C27.4169 29.1638 31.7661 35.6855 33.9025 38.8871L37.7823 44.7069L37.9787 44.5789C39.7174 43.4595 41.5567 41.8658 43.0126 40.2057C46.1117 36.6816 48.109 32.3845 48.7797 27.8026C48.9761 26.4699 49 26.0763 49 24.269C49 22.462 48.9761 22.0684 48.7797 20.7355C47.4481 11.6241 40.9003 3.96877 32.0201 1.13242C30.4537 0.629657 28.7869 0.283414 26.919 0.074719C26.459 0.0272885 23.293 -0.0248853 22.8955 0.0130592ZM32.9253 14.6881C33.1552 14.8019 33.3421 15.0201 33.409 15.2478C33.4474 15.3711 33.457 18.0082 33.4474 23.9512L33.4331 32.4793L31.9147 30.1741L30.3914 27.8691V21.6699C30.3914 17.662 30.4106 15.409 30.4394 15.2999C30.516 15.0343 30.6836 14.8256 30.9135 14.7023C31.1099 14.6027 31.1818 14.5932 31.9339 14.5932C32.6428 14.5932 32.7673 14.6027 32.9253 14.6881Z" fill="#F4F4F5"/>
</g>
<g clip-path="url(#clip0_712_191)">
<path d="M208.215 0H168.785C166.142 0 164 2.14239 164 4.78516V44.2148C164 46.8576 166.142 49 168.785 49H208.215C210.858 49 213 46.8576 213 44.2148V4.78516C213 2.14239 210.858 0 208.215 0Z" fill="#3178C6"/>
<path d="M208.215 0H168.785C166.142 0 164 2.14239 164 4.78516V44.2148C164 46.8576 166.142 49 168.785 49H208.215C210.858 49 213 46.8576 213 44.2148V4.78516C213 2.14239 210.858 0 208.215 0Z" fill="#3178C6"/>
<path fill-rule="evenodd" clip-rule="evenodd" d="M194.332 38.9918V43.7827C195.111 44.182 196.032 44.4814 197.095 44.681C198.159 44.8807 199.28 44.9805 200.458 44.9805C201.606 44.9805 202.697 44.8707 203.731 44.6511C204.764 44.4315 205.67 44.0697 206.449 43.5656C207.228 43.0616 207.845 42.4028 208.299 41.5893C208.753 40.7758 208.98 39.7703 208.98 38.5726C208.98 37.7042 208.851 36.9431 208.591 36.2894C208.331 35.6356 207.957 35.0542 207.468 34.5452C206.978 34.0361 206.392 33.5795 205.708 33.1752C205.024 32.771 204.252 32.3892 203.394 32.0299C202.765 31.7704 202.2 31.5184 201.701 31.2739C201.202 31.0292 200.778 30.7798 200.428 30.5253C200.079 30.2707 199.809 30.0012 199.619 29.7168C199.43 29.4323 199.335 29.1104 199.335 28.751C199.335 28.4217 199.42 28.1248 199.589 27.8602C199.759 27.5957 199.999 27.3687 200.308 27.179C200.618 26.9894 200.997 26.8421 201.447 26.7373C201.896 26.6326 202.395 26.5802 202.944 26.5802C203.344 26.5802 203.766 26.6102 204.21 26.67C204.654 26.7299 205.101 26.8222 205.551 26.9469C206 27.0717 206.437 27.229 206.861 27.4186C207.285 27.6082 207.677 27.8278 208.037 28.0774V23.6008C207.308 23.3213 206.512 23.1142 205.648 22.9795C204.784 22.8447 203.793 22.7773 202.675 22.7773C201.536 22.7773 200.458 22.8997 199.44 23.1442C198.421 23.3887 197.525 23.7705 196.751 24.2895C195.977 24.8085 195.366 25.4698 194.916 26.2733C194.467 27.0767 194.242 28.0374 194.242 29.1553C194.242 30.5826 194.654 31.8003 195.478 32.8085C196.302 33.8165 197.552 34.6699 199.23 35.3686C199.889 35.6381 200.503 35.9025 201.072 36.1621C201.641 36.4216 202.133 36.6911 202.547 36.9706C202.962 37.25 203.289 37.5545 203.529 37.8839C203.768 38.2132 203.888 38.5875 203.888 39.0068C203.888 39.3162 203.813 39.6031 203.663 39.8676C203.514 40.1321 203.286 40.3616 202.982 40.5563C202.677 40.751 202.298 40.9031 201.844 41.0129C201.389 41.1228 200.857 41.1776 200.248 41.1776C199.21 41.1776 198.181 40.9955 197.163 40.6311C196.144 40.2669 195.201 39.7204 194.332 38.9918ZM186.278 27.1875H192.424V23.2559H175.293V27.1875H181.409V44.6934H186.278V27.1875Z" fill="white"/>
</g>
<defs>
<clipPath id="clip0_712_191">
<rect width="49" height="49" fill="white" transform="translate(164)"/>
</clipPath>
</defs>
</svg>
