<svg width="30" height="30" viewBox="0 0 30 30" fill="none" xmlns="http://www.w3.org/2000/svg">
<path d="M23.4068 11.7048V18.9106M6.59333 9.30287V21.3125M21.0049 8.95974L8.99525 7.24408M21.0049 21.6556L8.99525 23.3713M6.11294 9.30287H7.07371C7.74631 9.30287 8.08261 9.30287 8.33951 9.17197C8.56549 9.05683 8.74921 8.87311 8.86435 8.64713C8.99525 8.39023 8.99525 8.05393 8.99525 7.38133V6.42056C8.99525 5.74796 8.99525 5.41166 8.86435 5.15476C8.74921 4.92878 8.56549 4.74506 8.33951 4.62992C8.08261 4.49902 7.74631 4.49902 7.07371 4.49902H6.11294C5.44034 4.49902 5.10404 4.49902 4.84714 4.62992C4.62117 4.74506 4.43744 4.92878 4.3223 5.15476C4.19141 5.41166 4.19141 5.74796 4.19141 6.42056V7.38133C4.19141 8.05393 4.19141 8.39023 4.3223 8.64713C4.43744 8.87311 4.62117 9.05683 4.84714 9.17197C5.10404 9.30287 5.44034 9.30287 6.11294 9.30287ZM6.11294 26.1163H7.07371C7.74631 26.1163 8.08261 26.1163 8.33951 25.9854C8.56549 25.8703 8.74921 25.6866 8.86435 25.4606C8.99525 25.2037 8.99525 24.8674 8.99525 24.1948V23.234C8.99525 22.5614 8.99525 22.2251 8.86435 21.9682C8.74921 21.7422 8.56549 21.5585 8.33951 21.4434C8.08261 21.3125 7.74631 21.3125 7.07371 21.3125H6.11294C5.44034 21.3125 5.10404 21.3125 4.84714 21.4434C4.62117 21.5585 4.43744 21.7422 4.3223 21.9682C4.19141 22.2251 4.19141 22.5614 4.19141 23.234V24.1948C4.19141 24.8674 4.19141 25.2037 4.3223 25.4606C4.43744 25.6866 4.62117 25.8703 4.84714 25.9854C5.10404 26.1163 5.44034 26.1163 6.11294 26.1163ZM22.9264 11.7048H23.8872C24.5598 11.7048 24.8961 11.7048 25.153 11.5739C25.3789 11.4588 25.5627 11.275 25.6778 11.0491C25.8087 10.7922 25.8087 10.4559 25.8087 9.78325V8.82248C25.8087 8.14988 25.8087 7.81358 25.6778 7.55668C25.5627 7.33071 25.3789 7.14698 25.153 7.03184C24.8961 6.90095 24.5598 6.90095 23.8872 6.90095H22.9264C22.2538 6.90095 21.9175 6.90095 21.6606 7.03184C21.4346 7.14698 21.2509 7.33071 21.1358 7.55668C21.0049 7.81358 21.0049 8.14988 21.0049 8.82248V9.78325C21.0049 10.4559 21.0049 10.7922 21.1358 11.0491C21.2509 11.275 21.4346 11.4588 21.6606 11.5739C21.9175 11.7048 22.2538 11.7048 22.9264 11.7048ZM22.9264 23.7144H23.8872C24.5598 23.7144 24.8961 23.7144 25.153 23.5835C25.3789 23.4684 25.5627 23.2846 25.6778 23.0587C25.8087 22.8018 25.8087 22.4655 25.8087 21.7929V20.8321C25.8087 20.1595 25.8087 19.8232 25.6778 19.5663C25.5627 19.3403 25.3789 19.1566 25.153 19.0415C24.8961 18.9106 24.5598 18.9106 23.8872 18.9106H22.9264C22.2538 18.9106 21.9175 18.9106 21.6606 19.0415C21.4346 19.1566 21.2509 19.3403 21.1358 19.5663C21.0049 19.8232 21.0049 20.1595 21.0049 20.8321V21.7929C21.0049 22.4655 21.0049 22.8018 21.1358 23.0587C21.2509 23.2846 21.4346 23.4684 21.6606 23.5835C21.9175 23.7144 22.2538 23.7144 22.9264 23.7144Z" stroke="url(#paint0_linear_662_221)" stroke-width="2" stroke-linecap="round" stroke-linejoin="round"/>
<defs>
<linearGradient id="paint0_linear_662_221" x1="15.0001" y1="4.49902" x2="15.0001" y2="26.1163" gradientUnits="userSpaceOnUse">
<stop offset="0.298077" stop-color="#FEE685"/>
<stop offset="0.716346" stop-color="#D08700"/>
</linearGradient>
</defs>
</svg>
