<svg width="151" height="45" viewBox="0 0 151 45" fill="none" xmlns="http://www.w3.org/2000/svg">
<path d="M114.337 41L113.531 31.9H115.208L115.611 39.193L118.874 31.9H120.603L121.227 39.18L124.217 31.9H125.907L121.812 41H119.966L119.316 34.123L116.17 41H114.337ZM124.632 41L126.244 31.9H131.886L131.665 33.148H127.583L127.115 35.787H130.807L130.599 36.996H126.907L126.413 39.752H130.495L130.274 41H124.632ZM130.996 41L132.608 31.9H136.183C136.764 31.9 137.241 31.9867 137.613 32.16C137.995 32.3333 138.276 32.576 138.458 32.888C138.64 33.1913 138.718 33.551 138.692 33.967C138.675 34.4263 138.549 34.8337 138.315 35.189C138.09 35.5443 137.787 35.826 137.405 36.034C137.033 36.242 136.612 36.3677 136.144 36.411L136.352 36.268C136.725 36.2767 137.046 36.372 137.314 36.554C137.592 36.7273 137.804 36.957 137.951 37.243C138.099 37.529 138.164 37.854 138.146 38.218C138.129 38.7727 137.964 39.258 137.652 39.674C137.349 40.09 136.942 40.415 136.43 40.649C135.919 40.883 135.343 41 134.701 41H130.996ZM132.79 39.739H134.688C135.07 39.739 135.399 39.674 135.676 39.544C135.954 39.414 136.17 39.2277 136.326 38.985C136.491 38.7337 136.578 38.4477 136.586 38.127C136.612 37.7543 136.495 37.464 136.235 37.256C135.984 37.0393 135.624 36.931 135.156 36.931H133.284L132.79 39.739ZM133.492 35.761H135.273C135.802 35.761 136.227 35.6267 136.547 35.358C136.868 35.0807 137.037 34.7123 137.054 34.253C137.072 34.0103 137.033 33.8067 136.937 33.642C136.842 33.4773 136.69 33.3517 136.482 33.265C136.283 33.1783 136.027 33.135 135.715 33.135L133.947 33.148L133.492 35.761Z" fill="#E4E4E7"/>
<path d="M24.4555 28L28.7955 3.5H33.5205L29.1805 28H24.4555ZM9.02051 28L13.3255 3.5H18.0505L13.7455 28H9.02051ZM14.9355 17.36L15.6355 13.615H27.7805L27.1155 17.36H14.9355ZM32.6059 28L36.9109 3.5H52.4159L51.7509 7.245H40.9709L39.8509 13.755H49.5809L48.9159 17.395H39.1859L37.9959 24.255H48.7409L48.0759 28H32.6059ZM51.0301 28L55.3351 3.5H64.4001C66.1967 3.5 67.6667 3.815 68.8101 4.445C69.9534 5.05167 70.7817 5.86833 71.2951 6.895C71.8084 7.89833 72.0417 9.01833 71.9951 10.255C71.9251 11.865 71.4584 13.2883 70.5951 14.525C69.7551 15.7383 68.5767 16.695 67.0601 17.395C65.5667 18.0717 63.8167 18.41 61.8101 18.41H57.4351L55.7551 28H51.0301ZM63.9451 28L60.7951 17.22H65.7301L69.1251 28H63.9451ZM58.0651 14.98H62.1951C63.6651 14.98 64.8434 14.595 65.7301 13.825C66.6167 13.055 67.0834 12.005 67.1301 10.675C67.1767 9.71833 66.9084 8.94833 66.3251 8.365C65.7651 7.75833 64.8317 7.455 63.5251 7.455H59.3951L58.0651 14.98ZM70.9752 28L71.6402 24.36L85.8852 7.42H74.6852L75.3852 3.5H92.0452L91.4152 7.14L77.0652 24.08H88.4752L87.7752 28H70.9752ZM101.547 28.42C99.4235 28.42 97.5685 27.9417 95.9818 26.985C94.3952 26.0283 93.1818 24.7217 92.3418 23.065C91.5018 21.385 91.1402 19.46 91.2568 17.29C91.3268 15.3067 91.7468 13.4517 92.5168 11.725C93.3102 9.99833 94.3602 8.49333 95.6668 7.21C96.9735 5.90333 98.4902 4.88833 100.217 4.165C101.944 3.44167 103.787 3.08 105.747 3.08C107.87 3.08 109.725 3.55833 111.312 4.515C112.899 5.47167 114.1 6.79 114.917 8.47C115.757 10.1267 116.13 12.0283 116.037 14.175C115.944 16.1817 115.5 18.0483 114.707 19.775C113.937 21.5017 112.899 23.0183 111.592 24.325C110.285 25.6083 108.769 26.6117 107.042 27.335C105.339 28.0583 103.507 28.42 101.547 28.42ZM102.177 24.185C103.39 24.185 104.522 23.94 105.572 23.45C106.645 22.96 107.59 22.2833 108.407 21.42C109.224 20.5333 109.865 19.5067 110.332 18.34C110.822 17.15 111.102 15.855 111.172 14.455C111.242 13.0083 111.055 11.76 110.612 10.71C110.169 9.63667 109.48 8.80833 108.547 8.225C107.637 7.64167 106.494 7.35 105.117 7.35C103.904 7.35 102.76 7.595 101.687 8.085C100.637 8.55167 99.7035 9.22833 98.8868 10.115C98.0702 10.9783 97.4168 11.9933 96.9268 13.16C96.4368 14.3267 96.1685 15.61 96.1218 17.01C96.0285 18.4567 96.2152 19.7167 96.6818 20.79C97.1485 21.8633 97.8485 22.7033 98.7818 23.31C99.7152 23.8933 100.847 24.185 102.177 24.185ZM127.131 28.42C125.054 28.42 123.281 27.9533 121.811 27.02C120.364 26.0867 119.267 24.8033 118.521 23.17C117.797 21.5367 117.494 19.6817 117.611 17.605C117.681 15.4583 118.089 13.4983 118.836 11.725C119.606 9.95167 120.644 8.42333 121.951 7.14C123.257 5.85667 124.786 4.865 126.536 4.165C128.286 3.44167 130.199 3.08 132.276 3.08C135.169 3.08 137.456 3.76833 139.136 5.145C140.839 6.52167 141.749 8.435 141.866 10.885H136.581C136.417 9.81167 135.916 8.97167 135.076 8.365C134.236 7.735 133.069 7.42 131.576 7.42C129.826 7.42 128.274 7.84 126.921 8.68C125.591 9.49667 124.529 10.6517 123.736 12.145C122.966 13.615 122.546 15.3417 122.476 17.325C122.382 18.7483 122.557 19.985 123.001 21.035C123.444 22.0617 124.121 22.855 125.031 23.415C125.941 23.9517 127.049 24.22 128.356 24.22C129.779 24.22 131.016 23.9633 132.066 23.45C133.139 22.9133 134.026 22.1783 134.726 21.245C135.426 20.2883 135.951 19.2033 136.301 17.99H130.281L130.911 14.455H141.691L139.276 28H134.971L135.111 24.885C134.481 25.655 133.769 26.3083 132.976 26.845C132.206 27.3583 131.342 27.7433 130.386 28C129.429 28.28 128.344 28.42 127.131 28.42Z" fill="white"/>
<path d="M108.354 37.3536C108.549 37.1583 108.549 36.8417 108.354 36.6464L105.172 33.4645C104.976 33.2692 104.66 33.2692 104.464 33.4645C104.269 33.6597 104.269 33.9763 104.464 34.1716L107.293 37L104.464 39.8284C104.269 40.0237 104.269 40.3403 104.464 40.5355C104.66 40.7308 104.976 40.7308 105.172 40.5355L108.354 37.3536ZM9 37V37.5L108 37.5V37V36.5L9 36.5V37Z" fill="#00BC7D"/>
</svg>
