<svg width="218" height="218" viewBox="0 0 218 218" fill="none" xmlns="http://www.w3.org/2000/svg">
<path d="M69.6907 140.9L76.9347 148.144M67.725 159.601C65.104 162.222 60.1031 161.567 56.2681 161.567C58.2337 157.732 55.6128 152.731 58.2337 150.11C60.8547 147.489 65.104 147.489 67.725 150.11C70.3459 152.731 70.3459 156.98 67.725 159.601ZM75.293 149.917L92.8136 130.995C94.3568 129.328 94.3071 126.74 92.701 125.134C91.0948 123.528 88.5066 123.478 86.84 125.021L67.9177 142.542C66.9399 143.447 66.451 143.9 66.1658 144.383C65.4821 145.541 65.4545 146.972 66.0933 148.155C66.3597 148.648 66.8308 149.12 67.7731 150.062C68.7154 151.004 69.1866 151.475 69.68 151.742C70.8631 152.38 72.2944 152.353 73.4521 151.669C73.9349 151.384 74.3876 150.895 75.293 149.917Z" stroke="#BBF451" stroke-width="3" stroke-linecap="round" stroke-linejoin="round"/>
<g filter="url(#filter0_d_323_122)">
<path d="M109 170.66C117.227 178.023 128.09 182.5 140 182.5C165.681 182.5 186.5 161.681 186.5 136C186.5 114.556 171.985 96.5028 152.244 91.1289M65.7564 91.1288C46.0152 96.5027 31.5 114.556 31.5 136C31.5 161.681 52.3188 182.5 78 182.5C103.681 182.5 124.5 161.681 124.5 136C124.5 129.951 123.345 124.172 121.244 118.871M155.5 74C155.5 99.6812 134.681 120.5 109 120.5C83.3188 120.5 62.5 99.6812 62.5 74C62.5 48.3188 83.3188 27.5 109 27.5C134.681 27.5 155.5 48.3188 155.5 74Z" stroke="#BBF451" stroke-width="3" stroke-linecap="round" stroke-linejoin="round"/>
</g>
<path d="M109.959 53.2268H103.247C99.5409 53.2268 96.5361 56.2316 96.5361 59.9381C96.5361 63.6447 99.5409 66.6495 103.247 66.6495M109.959 53.2268V66.6495M109.959 53.2268H116.67C120.377 53.2268 123.381 56.2316 123.381 59.9381C123.381 63.6447 120.377 66.6495 116.67 66.6495M109.959 66.6495H103.247M109.959 66.6495V80.0722M109.959 66.6495H116.67M103.247 66.6495C99.5409 66.6495 96.5361 69.6543 96.5361 73.3608C96.5361 77.0674 99.5409 80.0722 103.247 80.0722M109.959 80.0722H103.247M109.959 80.0722V86.7835C109.959 90.4901 106.954 93.4948 103.247 93.4948C99.5409 93.4948 96.5361 90.4901 96.5361 86.7835C96.5361 83.0769 99.5409 80.0722 103.247 80.0722M116.67 66.6495C120.377 66.6495 123.381 69.6543 123.381 73.3608C123.381 77.0674 120.377 80.0722 116.67 80.0722C112.964 80.0722 109.959 77.0674 109.959 73.3608C109.959 69.6543 112.964 66.6495 116.67 66.6495Z" stroke="#BBF451" stroke-width="3" stroke-linecap="round" stroke-linejoin="round"/>
<path d="M146.391 126.093V123.216M138.838 129.085L136.804 127.052M138.838 144.309L136.804 146.343M154.062 129.085L156.095 127.052M135.845 136.639H132.969M159.554 150.425L154.776 159.299C154.23 160.312 153.957 160.819 153.629 160.947C153.344 161.059 153.023 161.027 152.765 160.863C152.468 160.673 152.298 160.123 151.96 159.023L145.328 137.493C145.051 136.594 144.912 136.145 145.024 135.841C145.121 135.577 145.329 135.368 145.593 135.271C145.897 135.16 146.346 135.298 147.245 135.575L168.775 142.207C169.875 142.546 170.426 142.716 170.615 143.013C170.779 143.271 170.811 143.592 170.7 143.877C170.571 144.205 170.065 144.478 169.051 145.024L160.178 149.802C160.027 149.883 159.952 149.924 159.886 149.976C159.827 150.022 159.774 150.075 159.728 150.133C159.676 150.199 159.635 150.275 159.554 150.425Z" stroke="#BBF451" stroke-width="3" stroke-linecap="round" stroke-linejoin="round"/>
<defs>
<filter id="filter0_d_323_122" x="-14" y="-14" width="246" height="246" filterUnits="userSpaceOnUse" color-interpolation-filters="sRGB">
<feFlood flood-opacity="0" result="BackgroundImageFix"/>
<feColorMatrix in="SourceAlpha" type="matrix" values="0 0 0 0 0 0 0 0 0 0 0 0 0 0 0 0 0 0 127 0" result="hardAlpha"/>
<feOffset dy="4"/>
<feGaussianBlur stdDeviation="15"/>
<feColorMatrix type="matrix" values="0 0 0 0 1 0 0 0 0 1 0 0 0 0 1 0 0 0 0.5 0"/>
<feBlend mode="normal" in2="BackgroundImageFix" result="effect1_dropShadow_323_122"/>
<feBlend mode="normal" in="SourceGraphic" in2="effect1_dropShadow_323_122" result="shape"/>
</filter>
</defs>
</svg>
