<svg width="220" height="206" viewBox="0 0 220 206" fill="none" xmlns="http://www.w3.org/2000/svg">
<g filter="url(#filter0_d_348_25)">
<path d="M117.75 44.75C117.75 53.3104 98.6661 60.25 75.125 60.25C51.5839 60.25 32.5 53.3104 32.5 44.75M117.75 44.75C117.75 36.1896 98.6661 29.25 75.125 29.25C51.5839 29.25 32.5 36.1896 32.5 44.75M117.75 44.75V79.2929C108.283 82.1359 102.25 86.4367 102.25 91.25M32.5 44.75V137.75C32.5 146.31 51.5839 153.25 75.125 153.25C85.4296 153.25 94.8802 151.92 102.25 149.707V91.25M32.5 75.75C32.5 84.3104 51.5839 91.25 75.125 91.25C85.4296 91.25 94.8802 89.9203 102.25 87.7071M32.5 106.75C32.5 115.31 51.5839 122.25 75.125 122.25C85.4296 122.25 94.8802 120.92 102.25 118.707M187.5 91.25C187.5 99.8104 168.416 106.75 144.875 106.75C121.334 106.75 102.25 99.8104 102.25 91.25M187.5 91.25C187.5 82.6896 168.416 75.75 144.875 75.75C121.334 75.75 102.25 82.6896 102.25 91.25M187.5 91.25V153.25C187.5 161.81 168.416 168.75 144.875 168.75C121.334 168.75 102.25 161.81 102.25 153.25V91.25M187.5 122.25C187.5 130.81 168.416 137.75 144.875 137.75C121.334 137.75 102.25 130.81 102.25 122.25" stroke="#BBF451" stroke-width="5" stroke-linecap="round" stroke-linejoin="round"/>
</g>
<defs>
<filter id="filter0_d_348_25" x="-13" y="-20" width="246" height="246" filterUnits="userSpaceOnUse" color-interpolation-filters="sRGB">
<feFlood flood-opacity="0" result="BackgroundImageFix"/>
<feColorMatrix in="SourceAlpha" type="matrix" values="0 0 0 0 0 0 0 0 0 0 0 0 0 0 0 0 0 0 127 0" result="hardAlpha"/>
<feOffset dy="4"/>
<feGaussianBlur stdDeviation="15"/>
<feColorMatrix type="matrix" values="0 0 0 0 1 0 0 0 0 1 0 0 0 0 1 0 0 0 0.5 0"/>
<feBlend mode="normal" in2="BackgroundImageFix" result="effect1_dropShadow_348_25"/>
<feBlend mode="normal" in="SourceGraphic" in2="effect1_dropShadow_348_25" result="shape"/>
</filter>
</defs>
</svg>
