<svg width="274" height="24" viewBox="0 0 274 24" fill="none" xmlns="http://www.w3.org/2000/svg">
<g clip-path="url(#clip0_347_194)">
<path d="M272.897 13.8567C270.763 12.7469 269.019 11.1053 256.383 9.01058C252.061 8.31362 247.748 7.55906 243.423 6.8909C211.133 2.65538 208.323 2.81282 184.5 1.02338C171.739 0.266897 158.945 0.211217 146.167 1.70168e-05C137.157 -0.021103 128.144 0.299537 119.136 0.480017C70.6256 2.60162 87.5062 1.47458 53.7064 4.44482C39.1427 6.39746 24.6137 8.64194 10.0616 10.6925C7.89159 11.1552 5.68877 11.4931 3.54778 12.0787C1.17878 12.7354 1.0899 12.7085 0.751744 13.0157C-0.792163 14.1255 0.175919 16.8826 2.43671 16.3757C9.00459 14.5575 8.67417 14.7303 36.8432 10.681C37.6664 11.5411 38.2519 11.3299 40.4025 11.2781C42.9512 11.2167 45.4999 11.1763 48.0467 11.0631C58.3864 10.3315 68.6991 9.21602 79.033 8.38466C82.5904 8.13506 86.1439 7.78562 89.7013 7.48226C94.1861 7.25954 98.6729 7.04258 103.16 6.82946C126.401 6.41474 119.673 6.2285 148.501 6.53762C153.027 6.7277 148.804 6.50306 172.794 7.86242C191.462 9.56738 211.618 13.2269 229.878 16.7175C237.775 18.2362 252.422 21.1719 260.082 23.7792C260.818 23.9808 261.682 23.7274 262.113 23.0919C262.725 22.3776 262.627 21.2295 261.962 20.5709C261.334 19.9719 260.389 19.9104 259.608 19.5955C256.151 18.4723 251.069 17.2743 247.305 16.416L252.36 17.0458C256.808 17.6467 261.303 17.7984 265.759 18.3418C267.846 18.5261 270.673 18.6893 272.394 17.4989C272.831 17.2032 273.333 16.9709 273.594 16.4871C274.128 15.6058 273.813 14.3635 272.901 13.8605L272.897 13.8567ZM178.815 4.56386C186.088 4.83266 208.57 6.64706 216.812 7.43234C225.691 8.49026 234.568 9.5501 243.431 10.7328C248.117 11.6487 257.755 12.8851 263.086 14.2157C260.793 13.9949 258.493 13.8375 256.198 13.6282C230.409 10.5754 204.644 7.28834 178.815 4.56386Z" fill="#BBF451"/>
</g>
<defs>
<clipPath id="clip0_347_194">
<rect width="274" height="24" fill="white"/>
</clipPath>
</defs>
</svg>
